<?xml version="1.0" encoding="UTF-8"?>
<svg version="1.1" xmlns="http://www.w3.org/2000/svg" width="501" height="501">
<path d="M0 0 C0.33 0 0.66 0 1 0 C1 12.54 1 25.08 1 38 C0.67 38 0.34 38 0 38 C0 25.46 0 12.92 0 0 Z " fill="#000000" transform="translate(251,84)"/>
<path d="M0 0 C3.22360589 1.61180295 3.6717824 5.01042588 4.8203125 8.24609375 C5.08383514 8.97240494 5.34735779 9.69871613 5.61886597 10.44703674 C6.17526248 11.98502834 6.72815671 13.52429074 7.27783203 15.06469727 C8.12123537 17.42695577 8.97566707 19.78499129 9.83203125 22.14257812 C10.37044668 23.63518055 10.90822847 25.12801173 11.4453125 26.62109375 C11.70152374 27.32946884 11.95773499 28.03784393 12.22171021 28.76768494 C14 33.7673105 14 33.7673105 14 36 C13.34 36 12.68 36 12 36 C10.44484648 31.83993568 8.89683821 27.67730205 7.35522461 23.51220703 C6.83046015 22.09742782 6.30379396 20.6833524 5.77514648 19.27001953 C5.01297702 17.23134191 4.25781892 15.1901807 3.50390625 13.1484375 C3.04830322 11.92302246 2.5927002 10.69760742 2.12329102 9.43505859 C1.08903504 6.27227189 0.44286888 3.29177171 0 0 Z " fill="#000000" transform="translate(211,90)"/>
<path d="M0 0 C1.35651349 4.06954047 -0.07344088 6.67469859 -1.52734375 10.51171875 C-1.79511124 11.23994339 -2.06287872 11.96816803 -2.33876038 12.71846008 C-3.19639794 15.04476474 -4.06675518 17.36607367 -4.9375 19.6875 C-5.52102593 21.26335974 -6.10371872 22.83952825 -6.68554688 24.41601562 C-8.11405332 28.2809937 -9.55398574 32.14153983 -11 36 C-11.66 36 -12.32 36 -13 36 C-12.38333874 31.41728362 -11.17835162 27.42143032 -9.53125 23.10546875 C-9.29088013 22.47264481 -9.05051025 21.83982086 -8.80285645 21.18782043 C-8.29781271 19.86158878 -7.7900822 18.53637741 -7.27978516 17.2121582 C-6.49647547 15.1783488 -5.72221676 13.14126369 -4.94921875 11.10351562 C-1.14857743 1.14857743 -1.14857743 1.14857743 0 0 Z " fill="#000000" transform="translate(291,91)"/>
<path d="M0 0 C0.66 0 1.32 0 2 0 C5 5.75 5 5.75 5 8 C4.34 8 3.68 8 3 8 C0 2.25 0 2.25 0 0 Z " fill="#000000" transform="translate(195,103)"/>
<path d="M0 0 C0.66 0 1.32 0 2 0 C0.375 5.75 0.375 5.75 -3 8 C-2.45276317 4.62537285 -1.9451 2.91765 0 0 Z " fill="#000000" transform="translate(306,104)"/>
<path d="M0 0 C0.66 0 1.32 0 2 0 C2.81641189 4.33260569 3.62742411 8.66620556 4.4375 13 C4.66759766 14.22074219 4.89769531 15.44148438 5.13476562 16.69921875 C6.27045141 22.78912806 7.3301597 28.84054898 8 35 C7.34 35 6.68 35 6 35 C5.14326433 30.33732247 4.28882318 25.67423261 3.43652344 21.01074219 C3.14614174 19.423712 2.85512884 17.83679718 2.56347656 16.25 C2.14483037 13.9716534 1.72844184 11.69290416 1.3125 9.4140625 C1.11563599 8.34679428 1.11563599 8.34679428 0.91479492 7.25796509 C0 2.22774341 0 2.22774341 0 0 Z " fill="#000000" transform="translate(234,107)"/>
<path d="M0 0 C0.66 0 1.32 0 2 0 C1.30846625 4.34199371 0.6146368 8.68361252 -0.08129883 13.02490234 C-0.31760378 14.50103895 -0.55328711 15.97727521 -0.78833008 17.45361328 C-1.12677259 19.57871743 -1.46746746 21.70345021 -1.80859375 23.828125 C-2.01282959 25.1059082 -2.21706543 26.38369141 -2.42749023 27.70019531 C-2.8578189 30.18050332 -3.33514186 32.57553739 -4 35 C-4.66 35 -5.32 35 -6 35 C-4.49713785 23.23417132 -2.28813893 11.63387086 0 0 Z " fill="#000000" transform="translate(267,107)"/>
<path d="M0 0 C3.56531875 2.68951746 6.35752512 5.4386962 9.125 8.9375 C11.71623589 12.17982214 14.31857578 15.39411518 17.02734375 18.5390625 C17.53185059 19.1256665 18.03635742 19.71227051 18.55615234 20.31665039 C19.54900465 21.46736139 20.54535118 22.61506809 21.54541016 23.75952148 C25 27.77957639 25 27.77957639 25 30 C20.89496367 28.44390483 18.57660267 25.49063704 15.875 22.1875 C15.40215576 21.61797607 14.92931152 21.04845215 14.44213867 20.46166992 C11.00514688 16.29376776 7.63507122 12.07206764 4.3125 7.8125 C3.87856934 7.26037842 3.44463867 6.70825684 2.99755859 6.1394043 C0 2.23866454 0 2.23866454 0 0 Z " fill="#000000" transform="translate(176,110)"/>
<path d="M0 0 C0.33 0.66 0.66 1.32 1 2 C-4.55615918 8.87504545 -10.21899825 15.63943863 -16.01269531 22.31494141 C-18.16861767 24.8093677 -20.16848956 27.25273434 -22 30 C-22.66 30 -23.32 30 -24 30 C-22.59160505 25.70554982 -20.54145224 23.12953521 -17.4375 19.875 C-13.04457722 15.17648259 -8.93310669 10.33571217 -4.91015625 5.3125 C-3.34960398 3.42324244 -1.77142472 1.68812889 0 0 Z " fill="#000000" transform="translate(326,111)"/>
<path d="M0 0 C2.91589921 2.58243053 4.63489515 5.5524871 6.57421875 8.91015625 C6.90291458 9.47826523 7.23161041 10.04637421 7.57026672 10.63169861 C8.26084167 11.82807658 8.94904549 13.02582599 9.63500977 14.22485352 C10.68802587 16.06341818 11.75067253 17.89616275 12.81445312 19.72851562 C13.48495718 20.89289412 14.15489884 22.05759668 14.82421875 23.22265625 C15.43354248 24.28234619 16.04286621 25.34203613 16.6706543 26.43383789 C18 29 18 29 18 31 C17.34 31 16.68 31 16 31 C13.71308988 27.07203419 11.43469227 23.13930375 9.1640625 19.2019043 C8.39034646 17.86299259 7.61431645 16.52541529 6.8359375 15.18920898 C5.71785 13.26892223 4.60815742 11.34399877 3.5 9.41796875 C2.9750293 8.5224958 2.9750293 8.5224958 2.43945312 7.6089325 C0.85419922 4.83585952 0 3.25358183 0 0 Z " fill="#000000" transform="translate(204,118)"/>
<path d="M0 0 C0.33 0.66 0.66 1.32 1 2 C0.16723633 3.96777344 0.16723633 3.96777344 -1.16796875 6.359375 C-1.89016602 7.66261719 -1.89016602 7.66261719 -2.62695312 8.9921875 C-3.14193359 9.90226563 -3.65691406 10.81234375 -4.1875 11.75 C-4.68314453 12.64460937 -5.17878906 13.53921875 -5.68945312 14.4609375 C-11.01911452 24.00786069 -11.01911452 24.00786069 -14 28 C-14.66 28 -15.32 28 -16 28 C-14.66717899 24.48051951 -13.11362368 21.25619798 -11.25 17.98828125 C-10.7240625 17.06595703 -10.198125 16.14363281 -9.65625 15.19335938 C-9.1096875 14.24267578 -8.563125 13.29199219 -8 12.3125 C-7.4534375 11.35021484 -6.906875 10.38792969 -6.34375 9.39648438 C-5.8178125 8.47802734 -5.291875 7.55957031 -4.75 6.61328125 C-4.27046875 5.77579346 -3.7909375 4.93830566 -3.296875 4.07543945 C-2 2 -2 2 0 0 Z " fill="#000000" transform="translate(298,119)"/>
<path d="M0 0 C0 3 0 3 -1.5 4.6875 C-1.995 5.120625 -2.49 5.55375 -3 6 C-3.99 5.67 -4.98 5.34 -6 5 C-4.02 3.35 -2.04 1.7 0 0 Z " fill="#000000" transform="translate(336,129)"/>
<path d="M0 0 C0.66 0 1.32 0 2 0 C2.6708712 1.6232687 3.33657029 3.24867578 4 4.875 C4.556875 6.23238281 4.556875 6.23238281 5.125 7.6171875 C6 10 6 10 6 12 C5.34 12 4.68 12 4 12 C3.3291288 10.3767313 2.66342971 8.75132422 2 7.125 C1.62875 6.22007812 1.2575 5.31515625 0.875 4.3828125 C0 2 0 2 0 0 Z " fill="#000000" transform="translate(226,133)"/>
<path d="M0 0 C0.95465783 2.16967689 1.14401212 3.56328793 0.3984375 5.82421875 C-0.35870385 7.5684743 -1.17609198 9.28627131 -2 11 C-2.66 11 -3.32 11 -4 11 C-3.5247412 9.35303396 -3.04468109 7.70745272 -2.5625 6.0625 C-2.29566406 5.14597656 -2.02882813 4.22945312 -1.75390625 3.28515625 C-1 1 -1 1 0 0 Z " fill="#000000" transform="translate(275,134)"/>
<path d="M0 0 C0.99 0.66 1.98 1.32 3 2 C3 2.99 3 3.98 3 5 C3.66 5 4.32 5 5 5 C5 5.66 5 6.32 5 7 C9.82921763 3.89996438 9.82921763 3.89996438 14 0 C13.49287967 3.71888239 12.88391785 6.73454239 11 10 C12.953125 9.47916667 14.90625 8.95833333 16.859375 8.4375 C19 8 19 8 23 8 C23 8.66 23 9.32 23 10 C22.01 10.33 21.02 10.66 20 11 C20.99 11.33 21.98 11.66 23 12 C23 12.66 23 13.32 23 14 C24.1446875 14.1546875 24.1446875 14.1546875 25.3125 14.3125 C28.17059424 15.04364039 29.15742885 15.76951913 31 18 C31.99 17.67 32.98 17.34 34 17 C34.495 15.515 34.495 15.515 35 14 C35.99 13.67 36.98 13.34 38 13 C37.67 15.31 37.34 17.62 37 20 C38.65 20.99 40.3 21.98 42 23 C42.33 21.35 42.66 19.7 43 18 C43.639375 18.33 44.27875 18.66 44.9375 19 C46.76794567 20.07271225 46.76794567 20.07271225 48 20 C48.33 18.02 48.66 16.04 49 14 C49.66 14 50.32 14 51 14 C51.33 14.66 51.66 15.32 52 16 C52.66 16.33 53.32 16.66 54 17 C53.67 17.33 53.34 17.66 53 18 C54.32 18.33 55.64 18.66 57 19 C57.928125 17.7625 57.928125 17.7625 58.875 16.5 C59.57625 15.675 60.2775 14.85 61 14 C61.66 14 62.32 14 63 14 C63 14.99 63 15.98 63 17 C65.97 17 68.94 17 72 17 C70.88625 18.0828125 70.88625 18.0828125 69.75 19.1875 C64.71474034 23.83014594 64.71474034 23.83014594 63 30 C63.99 29.505 63.99 29.505 65 29 C63.25 32.875 63.25 32.875 61 34 C63.97 34.495 63.97 34.495 67 35 C66.01 35.99 66.01 35.99 65 37 C65.639375 37.28875 66.27875 37.5775 66.9375 37.875 C69 39 69 39 70 41 C64.36718401 41.2396943 59.45461169 40.38529821 54 39 C54.99 39.33 55.98 39.66 57 40 C56.67 42.97 56.34 45.94 56 49 C56.66 49 57.32 49 58 49 C58.33 49.66 58.66 50.32 59 51 C61.31 51 63.62 51 66 51 C66 51.66 66 52.32 66 53 C65.01 53.33 64.02 53.66 63 54 C63.33 54.99 63.66 55.98 64 57 C63.67 57.33 63.34 57.66 63 58 C63 59.32 63 60.64 63 62 C63.99 62 64.98 62 66 62 C66 59.36 66 56.72 66 54 C68.55279352 58.19174656 68.03878586 61.7820915 67.77734375 66.5390625 C67.85082031 67.35117188 67.92429687 68.16328125 68 69 C68.99 69.66 69.98 70.32 71 71 C71.33 69.68 71.66 68.36 72 67 C72.66 67 73.32 67 74 67 C74 67.66 74 68.32 74 69 C78.23548286 66.88225857 79.38988385 65.37031527 81 61 C81.99 60.67 82.98 60.34 84 60 C82.86211594 64.93083092 81.75768445 67.618084 78 71 C78 71.66 78 72.32 78 73 C77.01 73.66 76.02 74.32 75 75 C75 75.66 75 76.32 75 77 C74.01 77.33 73.02 77.66 72 78 C72.66 78.66 73.32 79.32 74 80 C76.61580479 79.6730244 78.64078137 79.17960932 81 78 C80.67 79.32 80.34 80.64 80 82 C81.65 82.33 83.3 82.66 85 83 C83.79979936 86.0862302 82.47980528 89.04038944 81 92 C80.67 92.99 80.34 93.98 80 95 C82.95800528 94.29231642 82.95800528 94.29231642 86 93 C87.20882096 90.99983534 87.20882096 90.99983534 88 89 C88.99 88.67 89.98 88.34 91 88 C90.42655063 90.86724686 90.1385485 91.8614515 88 94 C90.97 94 93.94 94 97 94 C94 97 94 97 92 98 C92.66 98.66 93.32 99.32 94 100 C95.98 98.68 97.96 97.36 100 96 C100 99 100 99 97.5 101.6875 C96.675 102.450625 95.85 103.21375 95 104 C97.31 104.33 99.62 104.66 102 105 C99.8614515 107.1385485 98.86724686 107.42655063 96 108 C98.97 108.495 98.97 108.495 102 109 C101.375 110.9375 101.375 110.9375 100 113 C96.875 113.75 96.875 113.75 94 114 C94 114.33 94 114.66 94 115 C96.31 115 98.62 115 101 115 C100.67 115.66 100.34 116.32 100 117 C96.7 117 93.4 117 90 117 C90 117.33 90 117.66 90 118 C78.97148676 119.61821885 78.97148676 119.61821885 75.25 117.25 C74.13625 116.13625 74.13625 116.13625 73 115 C67.72304038 112.63446638 62.69398059 111.4815845 57.0078125 110.53125 C50.53945444 109.38878676 44.03391873 108.04733558 37.8203125 105.90234375 C32.48790894 104.19627003 28.25909066 105.67375508 23.4375 108.125 C16.20576324 112.42960522 11.14978587 118.81775271 9 127 C8.48521202 132.31675388 8.73962269 137.66502932 8.96069336 142.99267578 C9.06224548 145.49373163 9.12638721 147.99371366 9.18554688 150.49609375 C9.51332716 165.42603809 9.51332716 165.42603809 17 178 C19.32228867 179.16114433 20.77306539 179.15338181 23.359375 179.2109375 C24.22820312 179.23929688 25.09703125 179.26765625 25.9921875 179.296875 C27.81491043 179.34851021 29.63785425 179.3929106 31.4609375 179.4296875 C36.70813268 179.61542892 40.41525095 180.1610991 45 183 C45 183.33 45 183.66 45 184 C39.72 184 34.44 184 29 184 C31.97 184.66 34.94 185.32 38 186 C37.67 186.66 37.34 187.32 37 188 C35.12475253 187.85738409 33.24981036 187.71075143 31.375 187.5625 C29.80878906 187.44068359 29.80878906 187.44068359 28.2109375 187.31640625 C25.10676121 187.01052027 22.06966091 186.54848296 19 186 C19.77863403 186.3242395 19.77863403 186.3242395 20.57299805 186.6550293 C22.94999992 187.65329054 25.31860028 188.6701699 27.6875 189.6875 C28.91243164 190.19700195 28.91243164 190.19700195 30.16210938 190.71679688 C36.8032553 193.59373054 41.91695502 197.21730104 45 204 C45.51964736 206.99175614 45.80861027 209.9707626 46 213 C46.73863281 212.95359375 47.47726562 212.9071875 48.23828125 212.859375 C58.58276527 212.49133745 67.25152182 214.70621 75.33984375 221.3828125 C79.54048057 225.47472696 81.23887513 229.25558274 81.75 235.125 C81.52720029 242.4064997 77.40392875 248.43760806 73 254 C72.34 254 71.68 254 71 254 C70.938125 254.86625 70.87625 255.7325 70.8125 256.625 C69.74390735 261.06376946 68.22135962 262.77864038 65 266 C64.00226563 266.20882812 64.00226563 266.20882812 62.984375 266.421875 C60.85107076 266.82549046 60.85107076 266.82549046 59.69140625 268.77734375 C59.31886719 269.49019531 58.94632813 270.20304687 58.5625 270.9375 C57.0067055 273.580932 56.254438 274.83930231 53.625 276.5 C50.37172527 277.11967138 47.30311185 277.1295338 44 277 C44 276.34 44 275.68 44 275 C44.62648438 274.80664062 45.25296875 274.61328125 45.8984375 274.4140625 C47.12433594 274.02347656 47.12433594 274.02347656 48.375 273.625 C49.59316406 273.24214844 49.59316406 273.24214844 50.8359375 272.8515625 C53.16459185 272.10145717 53.16459185 272.10145717 55 270 C55.6425235 267.93125966 55.6425235 267.93125966 56 266 C55.21625 265.855625 54.4325 265.71125 53.625 265.5625 C51 265 51 265 49 264 C49 263.34 49 262.68 49 262 C46.84744713 262.73049082 44.70304136 263.4850272 42.5625 264.25 C40.77005859 264.87648438 40.77005859 264.87648438 38.94140625 265.515625 C35.86184517 266.67037439 35.86184517 266.67037439 35.08984375 269.171875 C35.04537109 270.07679688 35.04537109 270.07679688 35 271 C33.02 271 31.04 271 29 271 C31.24578442 267.59260295 33.51137122 264.23521742 36 261 C35.525625 260.46375 35.05125 259.9275 34.5625 259.375 C32.66681947 256.49356559 32.21443767 254.43100266 32 251 C32.9375 248.625 32.9375 248.625 34 247 C34.66 247 35.32 247 36 247 C35.95875 248.0725 35.9175 249.145 35.875 250.25 C35.98857072 253.65712165 36.10464685 255.26226767 38 258 C40.28705831 259.14352916 41.59264762 259.10334439 44.125 259.0625 C46.043125 259.0315625 46.043125 259.0315625 48 259 C48.66 255.7 49.32 252.4 50 249 C52.10814823 252.16222235 52.17915284 252.50885438 51.875 256 C51.8156767 259.27507755 51.8156767 259.27507755 53.4375 262.125 C57.49710766 263.51120749 61.11574984 262.71788755 65 261 C66.67613187 258.52985528 66.67613187 258.52985528 67 256 C65.35 255.67 63.7 255.34 62 255 C62 254.34 62 253.68 62 253 C63.093125 252.9175 64.18625 252.835 65.3125 252.75 C69.03276664 252.36310791 69.03276664 252.36310791 70.9375 249.9375 C71.288125 249.298125 71.63875 248.65875 72 248 C70.35 247.34 68.7 246.68 67 246 C67.33 245.01 67.66 244.02 68 243 C70.31 243.33 72.62 243.66 75 244 C77.68495774 239.97256339 77.57173628 236.73132484 77 232 C75.66829691 229.02015833 75.66829691 229.02015833 74 227 C73.21625 227.99 72.4325 228.98 71.625 230 C70.325625 231.485 70.325625 231.485 69 233 C68.34 233 67.68 233 67 233 C67.309375 232.2575 67.61875 231.515 67.9375 230.75 C68.288125 229.8425 68.63875 228.935 69 228 C69.268125 227.319375 69.53625 226.63875 69.8125 225.9375 C70.20140742 223.8637233 70.20140742 223.8637233 68.75 221.8125 C66.14662845 219.11615089 63.59211815 218.83163905 60 218.75 C56.85885856 218.76392749 56.85885856 218.76392749 54.1875 220.3125 C53.795625 220.869375 53.40375 221.42625 53 222 C51.4375 223.6875 51.4375 223.6875 50 225 C49.34 225 48.68 225 48 225 C51.17412177 226.58706088 54.53638667 226.28477127 58 226 C60.88214887 225.11785113 60.88214887 225.11785113 63 224 C62.5875 224.86625 62.175 225.7325 61.75 226.625 C60.6217544 230.07473137 60.6217544 230.07473137 62.5625 233.3125 C64.73762767 236.12909001 64.73762767 236.12909001 67.5625 236.9375 C70.14134384 237.14201932 70.14134384 237.14201932 73 236 C73 235.34 73 234.68 73 234 C73.66 234 74.32 234 75 234 C75.33 235.65 75.66 237.3 76 239 C72.38026598 240.31626692 69.90432869 241 66 241 C65.67 242.65 65.34 244.3 65 246 C64.01 246 63.02 246 62 246 C62 244.68 62 243.36 62 242 C61.21625 242.061875 60.4325 242.12375 59.625 242.1875 C58.75875 242.125625 57.8925 242.06375 57 242 C55 239 55 239 55.375 236.8125 C55.58125 236.214375 55.7875 235.61625 56 235 C56.66 236.32 57.32 237.64 58 239 C58.99 239 59.98 239 61 239 C59.45705773 234.8309343 59.45705773 234.8309343 56.2421875 231.93359375 C54.52442366 231.21380202 52.76354319 230.5989392 51 230 C51.77036657 231.85436064 52.54131798 233.70847833 53.3125 235.5625 C53.76625 236.66207031 54.22 237.76164063 54.6875 238.89453125 C55.67125719 241.22217103 56.71137637 243.47893252 57.8125 245.75 C59.28656754 249.78429011 59.22460166 252.7325685 59 257 C57.68 257.33 56.36 257.66 55 258 C55.03480469 257.33613281 55.06960938 256.67226563 55.10546875 255.98828125 C55.38973447 248.97745104 55.38973447 248.97745104 52 243 C51.34 243 50.68 243 50 243 C46.76340806 248.201526 46.76340806 248.201526 45 254 C43.35 254 41.7 254 40 254 C41.72173549 249.10572654 44.47242536 245.55841236 47.63671875 241.5 C49.21750489 239.11093631 49.21750489 239.11093631 48.8984375 236.51953125 C47.87516434 233.6499174 46.5549063 231.26846751 44.9375 228.6875 C44.38964844 227.80449219 43.84179688 226.92148437 43.27734375 226.01171875 C42.85582031 225.34785156 42.43429687 224.68398438 42 224 C41.34 224.66 40.68 225.32 40 226 C40.19156392 229.44815049 41.08719562 231.12683 43.0625 234 C45.07198542 237.1114613 45.42322315 238.40260322 45 242 C43.02 242.99 43.02 242.99 41 244 C40.67 241.36 40.34 238.72 40 236 C39.62488281 236.6290625 39.24976563 237.258125 38.86328125 237.90625 C38.35152344 238.7621875 37.83976562 239.618125 37.3125 240.5 C36.76980469 241.41394531 36.22710937 242.32789063 35.66796875 243.26953125 C34.64861616 244.93821383 33.59594909 246.58780533 32.48828125 248.19921875 C29.47374787 252.59577316 28.24287783 255.48382416 29 261 C29.99 262.485 29.99 262.485 31 264 C30.38125 264.0825 29.7625 264.165 29.125 264.25 C26.8803042 264.81367219 26.8803042 264.81367219 25.75 266.75 C24.9042099 269.28737029 24.85235239 271.34234296 25 274 C30.05673188 275.18224519 33.79242263 275.60921438 38.375 272.875 C41.50220533 270.65989623 43.235334 268.431295 45 265 C45.66 265 46.32 265 47 265 C46.9260095 268.1076009 46.63075777 270.27573366 44.55078125 272.6640625 C39.59112415 277.03200346 35.87377144 279.11077228 29.1875 278.9375 C24.85975318 278.83506812 21.92970929 279.59111048 17.98828125 281.265625 C11.64082672 283.61006793 0.9376502 284.73739591 -5.29296875 281.98828125 C-5.85628906 281.66214844 -6.41960937 281.33601563 -7 281 C-7 280.34 -7 279.68 -7 279 C-6.21753906 279.08378906 -5.43507813 279.16757812 -4.62890625 279.25390625 C-3.61699219 279.35574219 -2.60507813 279.45757812 -1.5625 279.5625 C-0.55316406 279.66691406 0.45617187 279.77132813 1.49609375 279.87890625 C2.32238281 279.91886719 3.14867187 279.95882813 4 280 C4.33 279.67 4.66 279.34 5 279 C7.71027491 278.71351121 10.42089608 278.55164579 13.140625 278.37890625 C16.05014395 277.99335524 18.3343367 277.20149422 21 276 C20.505 274.515 20.505 274.515 20 273 C17.98491642 272.26676204 17.98491642 272.26676204 16 272 C16.928125 271.62875 16.928125 271.62875 17.875 271.25 C20.43742053 269.7426938 20.90915987 268.72710032 22 266 C22.33 265.29875 22.66 264.5975 23 263.875 C24.21996134 260.36761116 24.8731772 256.85612239 25.53515625 253.20703125 C26 251 26 251 27 249 C26.01 249 25.02 249 24 249 C24 248.34 24 247.68 24 247 C25.36125 246.4121875 25.36125 246.4121875 26.75 245.8125 C30.18159209 243.89872749 31.87297154 242.27235148 34 239 C34 238.01 34 237.02 34 236 C33.34 236.99 32.68 237.98 32 239 C31.34 239 30.68 239 30 239 C30.66 236.03 31.32 233.06 32 230 C27.0200221 230.64788062 23.07886303 231.19085273 19 234.25 C16.91032846 237.12329837 15.87706052 239.57149068 15 243 C14.67 242.01 14.34 241.02 14 240 C12.68 240.33 11.36 240.66 10 241 C11.66751148 237.05860922 14.22710649 234.2107188 17 231 C14.15392929 229.79589316 12.98490705 230.00503098 10 231 C6.14283338 233.57144441 5.02344321 235.87528884 3 240 C2.34 239.67 1.68 239.34 1 239 C0.34 239.66 -0.32 240.32 -1 241 C-1.33 240.34 -1.66 239.68 -2 239 C0.31 235.7 2.62 232.4 5 229 C0.77501736 228.58578602 -1.29090128 228.46817596 -4.75 231.0625 C-7.25486438 234.3327396 -8.56852303 237.15761444 -10 241 C-11.32 241 -12.64 241 -14 241 C-13.5359375 239.63875 -13.5359375 239.63875 -13.0625 238.25 C-12.2727737 235.83436662 -11.57050703 233.47219715 -11 231 C-16.70157423 236.36750153 -16.70157423 236.36750153 -18.125 243.75 C-18.08375 244.8225 -18.0425 245.895 -18 247 C-15.66928121 247.41870553 -15.66928121 247.41870553 -13 247 C-8.9504833 243.33012549 -7.35787437 238.32296177 -5.44140625 233.328125 C-4 231 -4 231 -1.33984375 230.171875 C-0.56769531 230.11515625 0.20445312 230.0584375 1 230 C0.71511719 230.5671875 0.43023437 231.134375 0.13671875 231.71875 C-0.98653428 233.97297602 -2.10813479 236.22437082 -3.1875 238.5 C-3.55230469 239.2528125 -3.91710937 240.005625 -4.29296875 240.78125 C-5.09761018 243.3063126 -4.87823436 244.53870625 -4 247 C-0.62770257 246.71607805 0.66005142 246.39336907 2.9140625 243.78515625 C3.47867188 242.88667969 4.04328125 241.98820313 4.625 241.0625 C6.67214242 237.84357696 7.78519817 236.14320122 11 234 C10.31516135 237.37696299 9.01977335 240.13565084 7.4375 243.1875 C5.76504233 245.95373509 5.76504233 245.95373509 5 249 C10.24862952 249.56235316 13.02909993 249.40601025 17.3125 246.1875 C19.67611558 244.2457874 21.86407045 242.18850628 24 240 C24.33 240.66 24.66 241.32 25 242 C24.54367187 242.73863281 24.08734375 243.47726562 23.6171875 244.23828125 C21.77964933 247.37629933 21.48425313 249.59058754 21.125 253.1875 C20.09720073 260.67939222 17.95158338 266.88887157 12.6875 272.4375 C9.30032559 274.40678744 5.8425353 276.13985088 2 277 C1.01 276.67 0.02 276.34 -1 276 C-1 275.01 -1 274.02 -1 273 C-0.38511719 272.86722656 0.22976562 272.73445313 0.86328125 272.59765625 C1.67152344 272.42105469 2.47976562 272.24445313 3.3125 272.0625 C4.11300781 271.88847656 4.91351563 271.71445312 5.73828125 271.53515625 C8.145401 271.00113841 8.145401 271.00113841 11 270 C11 268.68 11 267.36 11 266 C11.33 265.01 11.66 264.02 12 263 C11.38511719 263.42152344 10.77023438 263.84304688 10.13671875 264.27734375 C9.32847656 264.82519531 8.52023438 265.37304688 7.6875 265.9375 C6.48673828 266.75541016 6.48673828 266.75541016 5.26171875 267.58984375 C1.14972902 270.15362318 -2.08199931 270.0637699 -6.74609375 269.9375 C-8.98202025 269.99950143 -10.85919489 270.3758017 -13 271 C-13.33 270.34 -13.66 269.68 -14 269 C-13.34 268.34 -12.68 267.68 -12 267 C-12 266.34 -12 265.68 -12 265 C-14.31 264.67 -16.62 264.34 -19 264 C-17.75023244 267.65316671 -17.32901247 268.78065836 -14 271 C-12.34450469 271.38499891 -10.6777567 271.72793135 -9 272 C-9 272.66 -9 273.32 -9 274 C-12.85317399 274.36696895 -14.81897751 274.09221901 -18.3125 272.3125 C-21 270 -21 270 -21.875 267.25 C-21.91625 266.5075 -21.9575 265.765 -22 265 C-22.763125 264.896875 -23.52625 264.79375 -24.3125 264.6875 C-27.21867978 263.94405866 -28.19913049 263.34113037 -30 261 C-30.495 259.515 -30.495 259.515 -31 258 C-32.60875 257.566875 -32.60875 257.566875 -34.25 257.125 C-38.59885592 255.82034322 -40.18483271 254.51895911 -43 251 C-45.62040349 246.12062799 -46.3176245 242.50549127 -46 237 C-45.70591415 233.97932209 -45.70591415 233.97932209 -47.5 231.9375 C-49.6917838 227.64525673 -49.70460546 223.73198191 -49 219 C-48.09765625 217.0078125 -48.09765625 217.0078125 -47 215.25 C-44.79035104 211.65932043 -44.81805605 210.09373879 -45 206 C-44.3388259 204.6639345 -43.67161866 203.33084582 -43 202 C-42.69137408 200.54919441 -42.42134128 199.08972013 -42.1875 197.625 C-41.18847087 193.10346818 -39.69677 189.88860167 -36 187 C-24.62005787 180.082455 -15.12335286 178.63489899 -2 179 C-2.31505493 178.02317261 -2.31505493 178.02317261 -2.63647461 177.02661133 C-4.80312851 169.81528729 -5.45374018 163.18903483 -5.5625 155.6875 C-5.27480401 137.13919219 -5.27480401 137.13919219 -13 121 C-16.16844842 118.88770105 -16.56429023 118.77183258 -20.08984375 119.09375 C-20.87423828 119.15433594 -21.65863281 119.21492188 -22.46679688 119.27734375 C-24.11005755 119.42543206 -25.75328694 119.57386792 -27.39648438 119.72265625 C-28.18216797 119.78324219 -28.96785156 119.84382813 -29.77734375 119.90625 C-30.49140381 119.97134766 -31.20546387 120.03644531 -31.94116211 120.10351562 C-34.42797568 119.97848195 -35.90207904 119.31906745 -38 118 C-38.33 117.34 -38.66 116.68 -39 116 C-44.05674901 115.73385532 -47.29909561 115.86800135 -51.92578125 118.1328125 C-56.41388196 120.00919359 -61.27183169 120.90530093 -66 122 C-66 121.34 -66 120.68 -66 120 C-69.63 119.67 -73.26 119.34 -77 119 C-77 118.34 -77 117.68 -77 117 C-73.535 116.505 -73.535 116.505 -70 116 C-72.97 115.34 -75.94 114.68 -79 114 C-78.41196203 110.97580475 -77.77321882 107.98241547 -77 105 C-76.34 105 -75.68 105 -75 105 C-75.33 103.68 -75.66 102.36 -76 101 C-73.69 101.66 -71.38 102.32 -69 103 C-69.33 101.68 -69.66 100.36 -70 99 C-71.98 98.67 -73.96 98.34 -76 98 C-76 97.67 -76 97.34 -76 97 C-73.69 97 -71.38 97 -69 97 C-68.67 97.99 -68.34 98.98 -68 100 C-67.67 98.35 -67.34 96.7 -67 95 C-65.125 95.25 -65.125 95.25 -63 96 C-61.875 98 -61.875 98 -61 100 C-58.29120665 101.35439668 -55.99066732 101.06501451 -53 101 C-54.485 100.01 -54.485 100.01 -56 99 C-56.33 98.01 -56.66 97.02 -57 96 C-60.50294871 94.28432339 -60.50294871 94.28432339 -64 93 C-64 92.67 -64 92.34 -64 92 C-61.36 92.33 -58.72 92.66 -56 93 C-56.99 91.35 -57.98 89.7 -59 88 C-59.81984375 88.11859375 -60.6396875 88.2371875 -61.484375 88.359375 C-62.56203125 88.48828125 -63.6396875 88.6171875 -64.75 88.75 C-66.35101563 88.95882812 -66.35101563 88.95882812 -67.984375 89.171875 C-71 89 -71 89 -73.390625 87.015625 C-73.92171875 86.35046875 -74.4528125 85.6853125 -75 85 C-73.02 85 -71.04 85 -69 85 C-70.65 84.34 -72.3 83.68 -74 83 C-72.515 82.505 -72.515 82.505 -71 82 C-71 81.34 -71 80.68 -71 80 C-68.36 80.33 -65.72 80.66 -63 81 C-63.89335797 78.64214682 -63.89335797 78.64214682 -67.0625 77.875 C-68.031875 77.58625 -69.00125 77.2975 -70 77 C-70 76.67 -70 76.34 -70 76 C-65.545 75.505 -65.545 75.505 -61 75 C-61 74.34 -61 73.68 -61 73 C-60.34 73 -59.68 73 -59 73 C-58.67 72.34 -58.34 71.68 -58 71 C-54.942048 72.73559438 -52.36620011 74.38472619 -50 77 C-50.57352893 73.12867972 -52.48704352 70.91827204 -55 68 C-52.03 67.505 -52.03 67.505 -49 67 C-49.66 66.34 -50.32 65.68 -51 65 C-45.45949887 65.56825653 -40.96284034 67.62886517 -36 70 C-36 69.34 -36 68.68 -36 68 C-37.546875 67.7215625 -37.546875 67.7215625 -39.125 67.4375 C-43.77745746 66.13936014 -46.43867503 62.97802852 -49 59 C-49 58.34 -49 57.68 -49 57 C-47.68 57.33 -46.36 57.66 -45 58 C-45 57.34 -45 56.68 -45 56 C-44.34 56 -43.68 56 -43 56 C-43 56.99 -43 57.98 -43 59 C-41.10820797 59.6814823 -41.10820797 59.6814823 -39 60 C-38.34 59.34 -37.68 58.68 -37 58 C-37 58.99 -37 59.98 -37 61 C-36.34 61 -35.68 61 -35 61 C-35.39859561 59.07949388 -35.81965926 57.16364288 -36.25 55.25 C-36.59804687 53.64898437 -36.59804687 53.64898437 -36.953125 52.015625 C-38.38526572 47.89020472 -40.47465436 45.84741425 -44.25 43.75 C-44.8275 43.5025 -45.405 43.255 -46 43 C-46 42.67 -46 42.34 -46 42 C-49.465 41.505 -49.465 41.505 -53 41 C-53 40.34 -53 39.68 -53 39 C-51.68 39 -50.36 39 -49 39 C-49.33 36.36 -49.66 33.72 -50 31 C-47 33 -47 33 -45.625 35.875 C-43.86145087 39.26644064 -42.09531384 40.8249146 -39 43 C-39.495 39.04 -39.495 39.04 -40 35 C-40.66 35 -41.32 35 -42 35 C-42 34.34 -42 33.68 -42 33 C-42.66 33 -43.32 33 -44 33 C-44 32.34 -44 31.68 -44 31 C-42.68 30.34 -41.36 29.68 -40 29 C-40.66 28.01 -41.32 27.02 -42 26 C-41.505 24.515 -41.505 24.515 -41 23 C-38.69 24.98 -36.38 26.96 -34 29 C-34.66 27.02 -35.32 25.04 -36 23 C-35.360625 22.5875 -34.72125 22.175 -34.0625 21.75 C-31.79009069 19.82189513 -31.39803561 18.88575819 -31 16 C-29.68 18.31 -28.36 20.62 -27 23 C-25.68 23 -24.36 23 -23 23 C-22.505 21.515 -22.505 21.515 -22 20 C-21.34 20 -20.68 20 -20 20 C-20.495 19.01 -20.495 19.01 -21 18 C-19.35 18 -17.7 18 -16 18 C-16 17.01 -16 16.02 -16 15 C-14.125 15.3125 -14.125 15.3125 -12 16 C-11.01 17.485 -11.01 17.485 -10 19 C-9.67 16.36 -9.34 13.72 -9 11 C-8.01 11.99 -7.02 12.98 -6 14 C-5.34 12.68 -4.68 11.36 -4 10 C-3.34 10 -2.68 10 -2 10 C-2.41349051 12.97713169 -2.72121297 14.66958575 -4.6875 17 C-5.120625 17.66 -5.55375 18.32 -6 19 C-5.17824769 22.13759973 -4.29744125 23.70255875 -2 26 C0.79401014 13.07418637 0.79401014 13.07418637 0 0 Z M8 9 C8.33 9.99 8.66 10.98 9 12 C9 11.01 9 10.02 9 9 C8.67 9 8.34 9 8 9 Z M23 15 C23.33 16.32 23.66 17.64 24 19 C24.33 17.68 24.66 16.36 25 15 C24.34 15 23.68 15 23 15 Z M13 16 C13.33 16.99 13.66 17.98 14 19 C14.66 19 15.32 19 16 19 C15.67 18.01 15.34 17.02 15 16 C14.34 16 13.68 16 13 16 Z M20 16 C20 16.99 20 17.98 20 19 C20.66 18.67 21.32 18.34 22 18 C22 17.34 22 16.68 22 16 C21.34 16 20.68 16 20 16 Z M4 17 C3.67 17.99 3.34 18.98 3 20 C3.66 20 4.32 20 5 20 C4.79375 20.763125 4.5875 21.52625 4.375 22.3125 C3.66608797 25.21885944 3.66608797 25.21885944 6 28 C6.33 24.37 6.66 20.74 7 17 C6.01 17 5.02 17 4 17 Z M9 19 C9.33 21.64 9.66 24.28 10 27 C10.33 25.68 10.66 24.36 11 23 C12.32 22.67 13.64 22.34 15 22 C13.02 21.01 11.04 20.02 9 19 Z M64 19 C63.01 19.495 63.01 19.495 62 20 C62 20.66 62 21.32 62 22 C63.65 21.34 65.3 20.68 67 20 C66.01 19.67 65.02 19.34 64 19 Z M2 20 C1.649375 21.2375 1.29875 22.475 0.9375 23.75 C0.74027344 24.44609375 0.54304688 25.1421875 0.33984375 25.859375 C-0.03486159 28.21958796 0.27346676 29.74419051 1 32 C2.99785435 27.8794254 3.17835515 24.54805635 3 20 C2.67 20 2.34 20 2 20 Z M53 21 C53.99 21.495 53.99 21.495 55 22 C54.34 23.65 53.68 25.3 53 27 C53.99 26.67 54.98 26.34 56 26 C56 24.35 56 22.7 56 21 C55.01 21 54.02 21 53 21 Z M58 21 C59 23 59 23 59 23 Z M32 21 C31.34 21.66 30.68 22.32 30 23 C30.99 25.31 31.98 27.62 33 30 C33.33 30 33.66 30 34 30 C34.16677282 26.58343976 34.16677282 26.58343976 34 23 C33.34 22.34 32.68 21.68 32 21 Z M61 22 C62 24 62 24 62 24 Z M26 23 C27 25 27 25 27 25 Z M60 24 C58.515 25.98 58.515 25.98 57 28 C58.32 27.34 59.64 26.68 61 26 C60.67 25.34 60.34 24.68 60 24 Z M25 25 C26 28 26 28 26 28 Z M28 28 C27.67 29.32 27.34 30.64 27 32 C27.99 31.67 28.98 31.34 30 31 C29.67 30.01 29.34 29.02 29 28 C28.67 28 28.34 28 28 28 Z M20 29 C19.67 29.66 19.34 30.32 19 31 C19.66 31 20.32 31 21 31 C20.67 30.34 20.34 29.68 20 29 Z M-20 30 C-20.33 30.99 -20.66 31.98 -21 33 C-18.525 33.495 -18.525 33.495 -16 34 C-16.66 32.68 -17.32 31.36 -18 30 C-18.66 30 -19.32 30 -20 30 Z M8 33 C7.11341534 35.59122743 7.11341534 35.59122743 7 38 C8.88658874 38.03525132 8.88658874 38.03525132 11 37 C12.59501537 34.75835678 13.74543018 32.46433357 15 30 C11.9671229 30 10.40141466 31.21433269 8 33 Z M42 30 C43 32 43 32 43 32 Z M-30 32 C-29.01 33.32 -28.02 34.64 -27 36 C-26.67 35.34 -26.34 34.68 -26 34 C-26.33 33.34 -26.66 32.68 -27 32 C-27.99 32 -28.98 32 -30 32 Z M3 32 C4 36 4 36 4 36 Z M26 34 C26.66 35.65 27.32 37.3 28 39 C30.2773501 36.18490007 30.2773501 36.18490007 30 33 C27.9254644 32.8509288 27.9254644 32.8509288 26 34 Z M-23 34 C-23 34.66 -23 35.32 -23 36 C-22.01 36.33 -21.02 36.66 -20 37 C-19.67 36.34 -19.34 35.68 -19 35 C-20.32 34.67 -21.64 34.34 -23 34 Z M21 34 C20.2575 34.61875 19.515 35.2375 18.75 35.875 C16 38 16 38 13.75 38.75 C11.5555147 40.02140078 11.5555147 40.02140078 11.1875 43.75 C10.90216503 47.30371738 11.21465405 50.50957354 12 54 C14.58277767 51.74632973 15.52478024 49.9698897 16.4375 46.6875 C17.7198703 42.51297541 19.40196234 39.49391272 22 36 C21.67 35.34 21.34 34.68 21 34 Z M-36 35 C-35.37099631 38.6054232 -34.41162002 41.84919935 -33.0625 45.25 C-32.72347656 46.12140625 -32.38445312 46.9928125 -32.03515625 47.890625 C-31.18608628 50.1594282 -31.18608628 50.1594282 -29 51 C-29.40316925 44.68368172 -31.71232131 40.35006016 -35 35 C-35.33 35 -35.66 35 -36 35 Z M35 35 C36 37 36 37 36 37 Z M-31 37 C-30.65213292 38.97536745 -30.65213292 38.97536745 -30 41 C-29.34 41.33 -28.68 41.66 -28 42 C-28.66 40.35 -29.32 38.7 -30 37 C-30.33 37 -30.66 37 -31 37 Z M-15 38 C-14.34 38.66 -13.68 39.32 -13 40 C-13 39.34 -13 38.68 -13 38 C-13.66 38 -14.32 38 -15 38 Z M22.3359375 39.43359375 C18.40718925 43.31785917 18.40718925 43.31785917 16.69140625 48.39453125 C17.10699033 52.37226462 18.10342515 55.47665593 20 59 C20.66 57.02 21.32 55.04 22 53 C22.99 53.99 23.98 54.98 25 56 C26.23180249 49.84098757 25.73030908 44.21324498 25 38 C23.76019907 37.89121778 23.76019907 37.89121778 22.3359375 39.43359375 Z M31 38 C32 40 32 40 32 40 Z M37.46484375 41.421875 C35.08300058 43.98791404 34.15788876 46.71931519 33 50 C37.43936951 48.64352598 39.4156882 46.83191061 42 43 C43.24016669 40.3205355 43.24016669 40.3205355 44 38 C41.08974783 38 39.6037321 39.60198956 37.46484375 41.421875 Z M-20 39 C-19.67 39.99 -19.34 40.98 -19 42 C-18.01 42 -17.02 42 -16 42 C-16.33 41.01 -16.66 40.02 -17 39 C-17.99 39 -18.98 39 -20 39 Z M2 39 C3 42 3 42 3 42 Z M-11 40 C-10 42 -10 42 -10 42 Z M29 41 C30 43 30 43 30 43 Z M51 41 C50.01 42.485 50.01 42.485 49 44 C49.99 44 50.98 44 52 44 C50.02 46.31 48.04 48.62 46 51 C46.99 51.33 47.98 51.66 49 52 C49.66 51.67 50.32 51.34 51 51 C51 51.66 51 52.32 51 53 C49.02 53.66 47.04 54.32 45 55 C45.33 55.66 45.66 56.32 46 57 C49.93075644 56.42547254 49.93075644 56.42547254 53 54 C53.24360073 50.87185486 53.24360073 50.87185486 53.125 47.375 C53.10695313 46.18648437 53.08890625 44.99796875 53.0703125 43.7734375 C53.04710937 42.85820312 53.02390625 41.94296875 53 41 C52.34 41 51.68 41 51 41 Z M-28 42 C-27 44 -27 44 -27 44 Z M-16 43 C-16.33 43.66 -16.66 44.32 -17 45 C-13.82589184 46.88095298 -11.6490807 47.09356617 -8 47 C-5 48 -5 48 -4 50 C-4.33 48.35 -4.66 46.7 -5 45 C-8.63 44.34 -12.26 43.68 -16 43 Z M28 43 C29 45 29 45 29 45 Z M-36 44 C-35 47 -35 47 -35 47 Z M-25 46 C-25 49 -25 49 -25 49 Z M6 46 C6 47.32 6 48.64 6 50 C6.66 50 7.32 50 8 50 C8 48.68 8 47.36 8 46 C7.34 46 6.68 46 6 46 Z M-23 49 C-25.48386059 52.72579089 -25.3804212 54.58711402 -25 59 C-23.63002843 61.87146994 -23.63002843 61.87146994 -22 64 C-20.00016466 63.20882096 -20.00016466 63.20882096 -18 62 C-17.67 61.01 -17.34 60.02 -17 59 C-16.34 59.33 -15.68 59.66 -15 60 C-14.7497843 57.08365871 -14.7497843 57.08365871 -15 54 C-15.99 53.34 -16.98 52.68 -18 52 C-16.68 51.01 -15.36 50.02 -14 49 C-17.32361268 48.16909683 -19.77646698 47.66612427 -23 49 Z M-1 48 C-1.33 49.32 -1.66 50.64 -2 52 C-1.01 52.495 -1.01 52.495 0 53 C0.33 51.68 0.66 50.36 1 49 C0.34 48.67 -0.32 48.34 -1 48 Z M-27 49 C-26 51 -26 51 -26 51 Z M-12 51 C-12.66 51.66 -13.32 52.32 -14 53 C-13.67801034 56.09926819 -13.67801034 56.09926819 -13 59 C-12.01 58.67 -11.02 58.34 -10 58 C-8.77479736 54.99152582 -8.77479736 54.99152582 -8 52 C-9.89179203 51.3185177 -9.89179203 51.3185177 -12 51 Z M57 51 C57 54 57 54 57 54 Z M-34 53 C-34.05398987 55.27057377 -34.09278742 57.54151288 -34.125 59.8125 C-34.14820313 61.07707031 -34.17140625 62.34164062 -34.1953125 63.64453125 C-34.27581918 67.1338024 -34.27581918 67.1338024 -32 70 C-31.01 69.67 -30.02 69.34 -29 69 C-29 66.36 -29 63.72 -29 61 C-28.34 60.67 -27.68 60.34 -27 60 C-29.58110689 55.41455183 -29.58110689 55.41455183 -34 53 Z M-7 53 C-7.33 55.31 -7.66 57.62 -8 60 C-7.67 59.34 -7.34 58.68 -7 58 C-6.34 58 -5.68 58 -5 58 C-5.04125 59.0725 -5.0825 60.145 -5.125 61.25 C-5.0074255 64.77723487 -4.65152093 66.061073 -3 69 C-0.93012558 62.98103577 -0.93012558 62.98103577 -1.9453125 57 C-3.43211648 55.15197575 -3.43211648 55.15197575 -6 53 C-6.33 53 -6.66 53 -7 53 Z M8 53 C8 54.98 8 56.96 8 59 C8.33 59 8.66 59 9 59 C9 57.02 9 55.04 9 53 C8.67 53 8.34 53 8 53 Z M33 53 C34 55 34 55 34 55 Z M2 54 C0.93648325 57.38391693 0.78557018 58.5804634 2.4375 61.8125 C2.953125 62.534375 3.46875 63.25625 4 64 C5.27351308 61.45297384 4.80191925 60.5717055 4.0625 57.875 C3.86785156 57.15054688 3.67320312 56.42609375 3.47265625 55.6796875 C3.23869141 54.84824219 3.23869141 54.84824219 3 54 C2.67 54 2.34 54 2 54 Z M15 54 C12.05164339 59.58571439 12.05164339 59.58571439 10.9375 65.6875 C12.46699033 69.01639071 14.50226338 71.31493314 17 74 C17.33 74 17.66 74 18 74 C19.07168689 67.35554131 19.19099551 61.45767099 17 55 C16.34 54.67 15.68 54.34 15 54 Z M38.4375 56.5 C37.2309375 57.7375 37.2309375 57.7375 36 59 C37.65 58.67 39.3 58.34 41 58 C41.33 56.68 41.66 55.36 42 54 C40.52263018 53.88361269 40.52263018 53.88361269 38.4375 56.5 Z M21 55 C22 59 22 59 22 59 Z M52 58 C51.67 58.66 51.34 59.32 51 60 C51.66 60 52.32 60 53 60 C52.67 59.34 52.34 58.68 52 58 Z M46 59 C46.33 59.66 46.66 60.32 47 61 C47.33 60.34 47.66 59.68 48 59 C47.34 59 46.68 59 46 59 Z M-42 61 C-41.67 62.32 -41.34 63.64 -41 65 C-40.01 64.67 -39.02 64.34 -38 64 C-39.32 63.01 -40.64 62.02 -42 61 Z M-8 61 C-8.33 62.65 -8.66 64.3 -9 66 C-7.515 66.99 -7.515 66.99 -6 68 C-6 65.69 -6 63.38 -6 61 C-6.66 61 -7.32 61 -8 61 Z M31.6875 62.75 C29.99692265 65.00410313 29.17473099 66.20430411 29 69 C29.85790183 71.21771064 29.85790183 71.21771064 31 73 C33.39520049 71.04029051 34.0243293 69.91890234 34.9375 66.875 C35.288125 65.92625 35.63875 64.9775 36 64 C38.125 63.125 38.125 63.125 40 63 C40 62.34 40 61.68 40 61 C36.40372208 60.67306564 34.62364112 60.52805537 31.6875 62.75 Z M54 61 C53.34 61.66 52.68 62.32 52 63 C53.32 62.67 54.64 62.34 56 62 C55.34 61.67 54.68 61.34 54 61 Z M-13 62 C-12.67 63.32 -12.34 64.64 -12 66 C-11.67 64.68 -11.34 63.36 -11 62 C-11.66 62 -12.32 62 -13 62 Z M60 62 C59.34 62.66 58.68 63.32 58 64 C59.32 63.67 60.64 63.34 62 63 C61.34 62.67 60.68 62.34 60 62 Z M-18 64 C-18.66 65.32 -19.32 66.64 -20 68 C-18.35 68 -16.7 68 -15 68 C-15.33 66.68 -15.66 65.36 -16 64 C-16.66 64 -17.32 64 -18 64 Z M-1 64 C-1 66.31 -1 68.62 -1 71 C0.98 71.99 0.98 71.99 3 73 C2.34 71.35 1.68 69.7 1 68 C1.99 68.33 2.98 68.66 4 69 C3.20882096 67.00016466 3.20882096 67.00016466 2 65 C1.01 64.67 0.02 64.34 -1 64 Z M48 64 C47.34 65.32 46.68 66.64 46 68 C47.98 68.99 47.98 68.99 50 70 C51.54166642 68.62514468 51.54166642 68.62514468 53 67 C53 66.34 53 65.68 53 65 C51.35 64.67 49.7 64.34 48 64 Z M56 65 C54.0645852 67.39056942 54.0645852 67.39056942 53 70 C53.99 70 54.98 70 56 70 C56 69.34 56 68.68 56 68 C56.66 68 57.32 68 58 68 C58.33 68.66 58.66 69.32 59 70 C60.32 70 61.64 70 63 70 C63.33 68.68 63.66 67.36 64 66 C61.13879744 64.56939872 59.15989415 64.61307419 56 65 Z M-26 66 C-26 67.32 -26 68.64 -26 70 C-25.34 70 -24.68 70 -24 70 C-24.33 68.68 -24.66 67.36 -25 66 C-25.33 66 -25.66 66 -26 66 Z M36 69 C32.60739548 72.49922923 30.67868998 75.4774577 30.6875 80.4375 C30.790625 81.613125 30.89375 82.78875 31 84 C35.58283106 82.26168477 36.94269183 79.18069809 39 74.9375 C40 73 40 73 41.625 70.875 C43.19712122 69.11872074 43.19712122 69.11872074 43 67 C39.68560062 67 38.7084497 67.16781344 36 69 Z M-10 68 C-10 68.66 -10 69.32 -10 70 C-9.34 69.67 -8.68 69.34 -8 69 C-8.66 68.67 -9.32 68.34 -10 68 Z M-48 70 C-47.42055068 71.99863756 -47.42055068 71.99863756 -46 74 C-42.95800528 75.29231642 -42.95800528 75.29231642 -40 76 C-40 74.35 -40 72.7 -40 71 C-42.70879335 69.64560332 -45.00933268 69.93498549 -48 70 Z M-27 70 C-26.67 71.32 -26.34 72.64 -26 74 C-25.67 73.34 -25.34 72.68 -25 72 C-25.66 71.34 -26.32 70.68 -27 70 Z M-18 70 C-17.34 71.32 -16.68 72.64 -16 74 C-15.01 73.67 -14.02 73.34 -13 73 C-14.37485532 71.45833358 -14.37485532 71.45833358 -16 70 C-16.66 70 -17.32 70 -18 70 Z M-8 70 C-7 72 -7 72 -7 72 Z M-39 71 C-37.99806563 74.79303725 -37.18975773 77.71536341 -35 81 C-34.34 81 -33.68 81 -33 81 C-33.34066313 76.22564536 -33.34066313 76.22564536 -35.4375 72.0625 C-36.96072099 70.81256333 -36.96072099 70.81256333 -39 71 Z M-33 71 C-32.34 72.32 -31.68 73.64 -31 75 C-31 74.01 -31 73.02 -31 72 C-31.66 71.67 -32.32 71.34 -33 71 Z M12 71 C12.35049575 74.24208567 12.56221181 75.61527704 15.0625 77.8125 C15.701875 78.204375 16.34125 78.59625 17 79 C15.8141763 75.62496331 14.72426311 73.35277269 12 71 Z M-11 72 C-10.67 72.99 -10.34 73.98 -10 75 C-9.34 74.67 -8.68 74.34 -8 74 C-8.33 73.34 -8.66 72.68 -9 72 C-9.66 72 -10.32 72 -11 72 Z M-59 73 C-58 75 -58 75 -58 75 Z M46 73 C46.99 74.485 46.99 74.485 48 76 C48 75.01 48 74.02 48 73 C47.34 73 46.68 73 46 73 Z M49 73 C49.33 74.65 49.66 76.3 50 78 C50.99 77.34 51.98 76.68 53 76 C52.67 75.01 52.34 74.02 52 73 C51.01 73 50.02 73 49 73 Z M25 74 C25 75.98 25 77.96 25 80 C25.33 80 25.66 80 26 80 C26 78.02 26 76.04 26 74 C25.67 74 25.34 74 25 74 Z M28 74 C27.87625 75.258125 27.7525 76.51625 27.625 77.8125 C27.30131941 81.10325263 26.93395001 82.09907498 25 85 C25.33 85.99 25.66 86.98 26 88 C29.43492164 83.00115406 29.43492164 83.00115406 29.75 77.0625 C29.5025 76.051875 29.255 75.04125 29 74 C28.67 74 28.34 74 28 74 Z M58 74 C56.3553326 76.46326712 56.3553326 76.46326712 55 79 C56.99983534 78.20882096 56.99983534 78.20882096 59 77 C59.33 76.01 59.66 75.02 60 74 C59.34 74 58.68 74 58 74 Z M-2 75 C-1.01761309 78.00610393 -0.01222055 81.00382716 1 84 C1.433125 85.3303125 1.433125 85.3303125 1.875 86.6875 C3.46235959 89.95040582 5.56177012 92.31169526 8 95 C8.33 95 8.66 95 9 95 C8.67 90.05 8.34 85.1 8 80 C6.02 79.34 4.04 78.68 2 78 C2 77.34 2 76.68 2 76 C0.68 75.67 -0.64 75.34 -2 75 Z M65.375 76.5 C64.92125 76.995 64.4675 77.49 64 78 C65.97536745 77.65213292 65.97536745 77.65213292 68 77 C68.33 76.34 68.66 75.68 69 75 C66.87635519 74.77390663 66.87635519 74.77390663 65.375 76.5 Z M-64 76 C-62.02 76.99 -62.02 76.99 -60 78 C-60.33 77.34 -60.66 76.68 -61 76 C-61.99 76 -62.98 76 -64 76 Z M41 76 C40.67 77.32 40.34 78.64 40 80 C43.465 79.505 43.465 79.505 47 79 C46.67 78.01 46.34 77.02 46 76 C44.35 76 42.7 76 41 76 Z M-53 79 C-52.01 80.485 -52.01 80.485 -51 82 C-50.34 81.67 -49.68 81.34 -49 81 C-50.32 80.34 -51.64 79.68 -53 79 Z M-47 79 C-45.98239527 81.13875077 -45.98239527 81.13875077 -44 83 C-40.37436186 83.33380814 -40.37436186 83.33380814 -37 83 C-37 82.34 -37 81.68 -37 81 C-40.50776784 79.39644899 -43.14354879 78.77963136 -47 79 Z M-26 79 C-26 79.66 -26 80.32 -26 81 C-23.69 81.66 -21.38 82.32 -19 83 C-19 81.68 -19 80.36 -19 79 C-21.31 79 -23.62 79 -26 79 Z M-7 79 C-6.34 79.66 -5.68 80.32 -5 81 C-5 80.34 -5 79.68 -5 79 C-5.66 79 -6.32 79 -7 79 Z M14 80 C14 81.32 14 82.64 14 84 C14.99 83.67 15.98 83.34 17 83 C16.01 82.01 15.02 81.02 14 80 Z M42 81 C46 82 46 82 46 82 Z M-26 83 C-24.83857315 87.35535069 -23.92300495 89.64619703 -20 92 C-18.5393715 89.35261084 -18 88.10551666 -18 85 C-20.64 84.34 -23.28 83.68 -26 83 Z M62 83 C61.67 83.66 61.34 84.32 61 85 C61.99 84.67 62.98 84.34 64 84 C63.34 83.67 62.68 83.34 62 83 Z M-37 85 C-36.34 85.66 -35.68 86.32 -35 87 C-34.67 86.34 -34.34 85.68 -34 85 C-34.99 85 -35.98 85 -37 85 Z M38.3125 87.5 C37.549375 88.325 36.78625 89.15 36 90 C37.98 90 39.96 90 42 90 C42.66 88.35 43.32 86.7 44 85 C40.75434142 84.65944803 40.75434142 84.65944803 38.3125 87.5 Z M47 85 C46.67 85.66 46.34 86.32 46 87 C47.32 86.67 48.64 86.34 50 86 C49.01 85.67 48.02 85.34 47 85 Z M74 85 C74.99 85.33 75.98 85.66 77 86 C77.33 86.99 77.66 87.98 78 89 C78.99 88.34 79.98 87.68 81 87 C81 86.34 81 85.68 81 85 C78.69 85 76.38 85 74 85 Z M-32 86 C-32.33 86.66 -32.66 87.32 -33 88 C-31.68 88.33 -30.36 88.66 -29 89 C-29.99 88.01 -30.98 87.02 -32 86 Z M-6 86 C-5.67 86.66 -5.34 87.32 -5 88 C-4.34 87.67 -3.68 87.34 -3 87 C-3.99 86.67 -4.98 86.34 -6 86 Z M29.375 90 C28.42753906 90.8353125 28.42753906 90.8353125 27.4609375 91.6875 C26.97882813 92.120625 26.49671875 92.55375 26 93 C26.99 93.33 27.98 93.66 29 94 C32.42578949 90.82460444 32.42578949 90.82460444 35 87 C32.22957891 87 31.41835044 88.1836885 29.375 90 Z M57 87 C58.98 87.99 58.98 87.99 61 89 C61.33 88.34 61.66 87.68 62 87 C60.35 87 58.7 87 57 87 Z M-53 88 C-53 89.32 -53 90.64 -53 92 C-51.07977297 93.77409808 -51.07977297 93.77409808 -49 95 C-48.67 93.35 -48.34 91.7 -48 90 C-50.475 89.01 -50.475 89.01 -53 88 Z M-10 88 C-11.4358353 94.23682054 -11.4358353 94.23682054 -9.87109375 100.24609375 C-8.81087107 101.69426758 -7.73188636 103.12885035 -6.63671875 104.55078125 C-3.71006648 108.93028237 -2.44544631 113.97494842 -1 119 C-0.01 119 0.98 119 2 119 C5.04994623 112.77107135 3.75558421 106.68692029 3 100 C2.93296875 99.15824219 2.8659375 98.31648438 2.796875 97.44921875 C2.55462106 95.08478279 2.55462106 95.08478279 1 92 C-2.32084036 89.79868537 -5.9586825 88 -10 88 Z M51 88 C52 90 52 90 52 90 Z M74 88 C74.66 88.66 75.32 89.32 76 90 C76 89.34 76 88.68 76 88 C75.34 88 74.68 88 74 88 Z M-47 93 C-47.15474612 95.56189845 -47.15474612 95.56189845 -46 98 C-45.21625 98.4125 -44.4325 98.825 -43.625 99.25 C-39.678396 101.88106933 -39.14661024 105.55338956 -38 110 C-37.30132812 110.10957031 -36.60265625 110.21914062 -35.8828125 110.33203125 C-34.51769531 110.56986328 -34.51769531 110.56986328 -33.125 110.8125 C-32.22007812 110.96332031 -31.31515625 111.11414063 -30.3828125 111.26953125 C-28 112 -28 112 -26 115 C-23.37302936 115.22137393 -20.99106036 115.28162025 -18.375 115.1875 C-17.66859375 115.17396484 -16.9621875 115.16042969 -16.234375 115.14648438 C-14.48925872 115.1111104 -12.74453392 115.05730221 -11 115 C-11.48460344 109.87704937 -13.12948494 106.81502151 -16.0625 102.625 C-16.79597656 101.56539062 -17.52945313 100.50578125 -18.28515625 99.4140625 C-19.13400391 98.21910156 -19.13400391 98.21910156 -20 97 C-21.32 98.32 -22.64 99.64 -24 101 C-25 100 -26 99 -27 98 C-26.01 97.34 -25.02 96.68 -24 96 C-25.17458586 92.91323202 -25.17458586 92.91323202 -27.84765625 91.171875 C-38.33998555 88.62634062 -38.33998555 88.62634062 -47 93 Z M-17 90 C-17.66 91.32 -18.32 92.64 -19 94 C-18.01 94.33 -17.02 94.66 -16 95 C-16 93.35 -16 91.7 -16 90 C-16.33 90 -16.66 90 -17 90 Z M47 89 C46.01 89.66 45.02 90.32 44 91 C45.32 91 46.64 91 48 91 C47.67 90.34 47.34 89.68 47 89 Z M36.05859375 94.984375 C33.59397983 96.20031356 31.79525298 96.19947144 29.0625 96.25 C25.3493657 96.52334859 25.3493657 96.52334859 22.23828125 98.39453125 C20.70060863 100.20957529 20.70060863 100.20957529 19 103 C19.53367187 102.80664062 20.06734375 102.61328125 20.6171875 102.4140625 C25.62774798 100.66296697 30.54242614 99.43937117 35.7578125 98.47265625 C38.31698626 97.93317886 40.63091009 97.10557529 43 96 C42.67 95.34 42.34 94.68 42 94 C38.23181599 93.69851245 38.23181599 93.69851245 36.05859375 94.984375 Z M7 97 C8 100 8 100 8 100 Z M46.421875 97.6796875 C45.54015625 98.07414062 44.6584375 98.46859375 43.75 98.875 C42.41195312 99.45894531 42.41195312 99.45894531 41.046875 100.0546875 C40.03367187 100.52261719 40.03367187 100.52261719 39 101 C46.1649795 105.776653 54.67354252 105.25359769 63 105 C62.67 103.68 62.34 102.36 62 101 C61.39671875 100.87882812 60.7934375 100.75765625 60.171875 100.6328125 C59.37265625 100.46523437 58.5734375 100.29765625 57.75 100.125 C56.96109375 99.96257812 56.1721875 99.80015625 55.359375 99.6328125 C53 99 53 99 51.03125 97.8125 C48.93998723 96.74201418 48.93998723 96.74201418 46.421875 97.6796875 Z M-50 99 C-49 101 -49 101 -49 101 Z M80 99 C79.67 99.66 79.34 100.32 79 101 C81.2747813 102.38111722 82.50171361 103.05694702 85.1875 102.75 C87.19815586 102.14991567 87.19815586 102.14991567 88 100 C85.36 99.67 82.72 99.34 80 99 Z M-46 102 C-45.21869929 104.49552484 -45.21869929 104.49552484 -44 107 C-43.01 107.33 -42.02 107.66 -41 108 C-41.33 106.35 -41.66 104.7 -42 103 C-43.32 102.67 -44.64 102.34 -46 102 Z M-54 104 C-51.20579508 107.91603304 -51.20579508 107.91603304 -47 110 C-47.27617533 108.05925139 -47.27617533 108.05925139 -48 106 C-50.81509993 103.7226499 -50.81509993 103.7226499 -54 104 Z M-61 105 C-60.67 105.66 -60.34 106.32 -60 107 C-59.34 106.67 -58.68 106.34 -58 106 C-58.99 105.67 -59.98 105.34 -61 105 Z M74 107 C74 107.33 74 107.66 74 108 C76.91634129 108.2502157 76.91634129 108.2502157 80 108 C80.66 107.01 81.32 106.02 82 105 C78.79604584 105 76.90600261 105.74335022 74 107 Z M57 107 C61 108 61 108 61 108 Z M61 108 C65 109 65 109 65 109 Z M-77 111 C-71.71800407 112.19988045 -71.71800407 112.19988045 -67 110 C-72.28199593 108.80011955 -72.28199593 108.80011955 -77 111 Z M85 110 C83.02 110.99 83.02 110.99 81 112 C83.31 112 85.62 112 88 112 C87.01 111.34 86.02 110.68 85 110 Z M-37 112 C-36.34 113.65 -35.68 115.3 -35 117 C-32.69 117 -30.38 117 -28 117 C-28.48705712 114.93597032 -28.48705712 114.93597032 -30 113 C-33.56206661 112.18129815 -33.56206661 112.18129815 -37 112 Z M-70 113 C-70 113.33 -70 113.66 -70 114 C-68.02 114 -66.04 114 -64 114 C-64 113.67 -64 113.34 -64 113 C-65.98 113 -67.96 113 -70 113 Z M76 114 C78.49505962 116.49505962 79.67328888 116.35948376 83.125 116.625 C84.03507813 116.69976562 84.94515625 116.77453125 85.8828125 116.8515625 C86.58148438 116.90054688 87.28015625 116.94953125 88 117 C88.33 116.34 88.66 115.68 89 115 C84.71 114.67 80.42 114.34 76 114 Z M-66 117 C-66 117.33 -66 117.66 -66 118 C-64.54176788 118.0270043 -63.08339325 118.04639787 -61.625 118.0625 C-60.40683594 118.07990234 -60.40683594 118.07990234 -59.1640625 118.09765625 C-56.95062858 118.14466334 -56.95062858 118.14466334 -55 117 C-55 116.34 -55 115.68 -55 115 C-59.08718695 114.75957724 -62.17679443 115.57741188 -66 117 Z M-5 184 C-4.67 184.66 -4.34 185.32 -4 186 C-5.11375 185.484375 -6.2275 184.96875 -7.375 184.4375 C-12.39617627 182.51181591 -16.79398118 183.11455008 -22 184 C-22 184.33 -22 184.66 -22 185 C-20.989375 184.9175 -19.97875 184.835 -18.9375 184.75 C-15.2267791 184.98560133 -14.38882391 185.1396236 -11.5 187 C-7.93890996 189.2617734 -5.24110913 189.48935875 -1 189 C-0.01 188.34 0.98 187.68 2 187 C2.25030977 184.41619823 2.25030977 184.41619823 2 182 C-1.10551666 182 -2.35261084 182.5393715 -5 184 Z M-25 185 C-25.66 185.66 -26.32 186.32 -27 187 C-24.36 187.33 -21.72 187.66 -19 188 C-19 188.66 -19 189.32 -19 190 C-19.515625 189.835 -20.03125 189.67 -20.5625 189.5 C-24.96569896 188.5967797 -28.63958241 188.35070979 -32.75 190.3125 C-34.69048456 191.76786342 -36.37525774 193.20423224 -38 195 C-37.67 195.66 -37.34 196.32 -37 197 C-35.63875 196.505 -35.63875 196.505 -34.25 196 C-31 195 -31 195 -27 195 C-27.69867188 195.24234375 -28.39734375 195.4846875 -29.1171875 195.734375 C-30.02726562 196.06953125 -30.93734375 196.4046875 -31.875 196.75 C-32.77992188 197.07484375 -33.68484375 197.3996875 -34.6171875 197.734375 C-37.32047018 199.17021695 -37.96706853 200.17427942 -39 203 C-34.10928003 204.18026425 -31.14118449 203.68821734 -26.4375 202 C-21.97582077 200.40241403 -19.5726645 199.94756135 -15 201 C-12.08828783 200.69973387 -12.08828783 200.69973387 -9.1875 200.0625 C-8.21167969 199.86785156 -7.23585938 199.67320312 -6.23046875 199.47265625 C-5.49441406 199.31667969 -4.75835937 199.16070312 -4 199 C-4 198.67 -4 198.34 -4 198 C-11.43531135 196.43467129 -18.89829177 196.00980706 -26 199 C-24.06745228 196.9754262 -22.36841312 195.57894208 -20 194 C-22.97 193.34 -25.94 192.68 -29 192 C-23.88007031 191.75226147 -19.81955824 191.88778542 -14.9375 193.5 C-9.40118442 195.31391706 -4.82235663 195.8589781 0.875 194.125 C3.13325765 193.06279958 3.13325765 193.06279958 5 191 C4.505 189.515 4.505 189.515 4 188 C3.505 188.495 3.01 188.99 2.5 189.5 C-0.98541263 191.59124758 -4.08800901 191.66510999 -8 191 C-10.05865607 190.13512082 -11.95807472 189.11359223 -13.91015625 188.03125 C-17.35714041 186.33030828 -21.15051912 185.20764835 -25 185 Z M8 192 C6.35 194.64 4.7 197.28 3 200 C2.34 199.67 1.68 199.34 1 199 C-1.17817481 199.61807573 -1.17817481 199.61807573 -3.5 200.6875 C-4.2940625 201.02136719 -5.088125 201.35523438 -5.90625 201.69921875 C-8.31481637 203.19558554 -8.98992724 204.3924752 -10 207 C-10.495 205.02 -10.495 205.02 -11 203 C-16.81006609 203.40069421 -20.43554411 204.07244494 -25 208 C-26.88568694 211.10014929 -26.88568694 211.10014929 -28 214 C-23.76570244 212.68938409 -19.92592596 211.05643741 -16 209 C-17.98 211.97 -17.98 211.97 -20 215 C-20.66 214.67 -21.32 214.34 -22 214 C-24.93618939 214.4893649 -27.4844074 215.40643604 -30 217 C-31.61135346 220.54863159 -31.61135346 220.54863159 -32 224 C-30.8354799 225.66621425 -30.8354799 225.66621425 -29 227 C-25.51967799 226.73897585 -23.94903702 225.96602468 -21 224 C-21.25 225.875 -21.25 225.875 -22 228 C-23.9375 229.125 -23.9375 229.125 -26 230 C-26.66 230.66 -27.32 231.32 -28 232 C-28 231.34 -28 230.68 -28 230 C-30.75641416 230.49756092 -30.75641416 230.49756092 -33 232 C-33.04092937 234.33297433 -33.04241723 236.66705225 -33 239 C-29.95086772 240.01111093 -29.95086772 240.01111093 -27 239 C-28.54435385 240.54435385 -30.08464799 242.07837777 -31.6875 243.5625 C-33.22475645 244.92173659 -33.22475645 244.92173659 -33 247 C-33.99 247 -34.98 247 -36 247 C-35.649375 246.236875 -35.29875 245.47375 -34.9375 244.6875 C-33.67639116 241.95240621 -33.67639116 241.95240621 -35 239 C-35.06802967 237.27204648 -35.08495645 235.54164635 -35.0625 233.8125 C-35.05347656 232.91144531 -35.04445313 232.01039063 -35.03515625 231.08203125 C-35.02355469 230.39496094 -35.01195312 229.70789063 -35 229 C-35.66 229 -36.32 229 -37 229 C-36.01 225.37 -35.02 221.74 -34 218 C-34.66 218 -35.32 218 -36 218 C-38.31592022 221.22114157 -38.31592022 221.22114157 -39 225 C-40.32 224.67 -41.64 224.34 -43 224 C-41.56875447 220.64065168 -39.82271696 218.68207173 -37.0625 216.3125 C-36.37285156 215.71050781 -35.68320313 215.10851562 -34.97265625 214.48828125 C-33 213 -33 213 -30 212 C-30 211.34 -30 210.68 -30 210 C-34.82762215 210.11569465 -38.05340296 210.25480659 -41.9375 213.3125 C-45.33719825 217.74240985 -46.40301019 220.52182283 -46.2578125 226.1015625 C-45.89468801 228.77547922 -44.92589094 230.14543835 -43 232 C-42.01 232.66 -41.02 233.32 -40 234 C-40.7734375 235.0209375 -40.7734375 235.0209375 -41.5625 236.0625 C-43.45650872 239.93286565 -43.08807032 241.8653328 -42 246 C-39.92719269 249.66195958 -38.50963584 251.66024277 -35 254 C-31.15072555 253.70390197 -28.91238742 252.48092261 -26 250 C-26.350625 250.721875 -26.70125 251.44375 -27.0625 252.1875 C-28.12108083 255.3632425 -28.10140686 256.86522663 -27 260 C-24.13289692 262.31201886 -24.13289692 262.31201886 -20.625 262 C-15.82605592 260.67615336 -14.74083486 259.06972448 -12 255 C-12 254.34 -12 253.68 -12 253 C-11.34 253 -10.68 253 -10 253 C-11.875 259.75 -11.875 259.75 -13 262 C-8.00088076 261.52389341 -5.02167317 259.96837781 -1 257 C-1 257.99 -1 258.98 -1 260 C-0.01 260 0.98 260 2 260 C3.85302042 258.30723357 3.85302042 258.30723357 5 256 C5.00478037 253.8522367 5.00478037 253.8522367 4 252 C3.01 251.34 2.02 250.68 1 250 C-2.29136173 250.71082942 -2.29136173 250.71082942 -3.5625 254 C-4.036875 254.99 -4.51125 255.98 -5 257 C-5.99 257.495 -5.99 257.495 -7 258 C-6.4740625 257.13375 -6.4740625 257.13375 -5.9375 256.25 C-4.82754596 254.07648452 -4.82754596 254.07648452 -5.1875 251.875 C-5.95555364 249.63753682 -5.95555364 249.63753682 -9 248 C-12.3 250.64 -15.6 253.28 -19 256 C-18.67 254.35 -18.34 252.7 -18 251 C-19.485 250.505 -19.485 250.505 -21 250 C-21.99 250.495 -21.99 250.495 -23 251 C-22.67 250.34 -22.34 249.68 -22 249 C-21.960008 247.00039988 -21.95653201 244.99952758 -22 243 C-23.98 243.495 -23.98 243.495 -26 244 C-25.34 243.05125 -24.68 242.1025 -24 241.125 C-21.82031543 238.33761045 -21.82031543 238.33761045 -22 236 C-22.66 236 -23.32 236 -24 236 C-24 235.01 -24 234.02 -24 233 C-22.515 233.495 -22.515 233.495 -21 234 C-17.81711646 232.12821884 -17.81711646 232.12821884 -15 230 C-15.350625 229.484375 -15.70125 228.96875 -16.0625 228.4375 C-17.3615641 225.05993333 -16.67217681 222.49531943 -16 219 C-15 220 -15 220 -14.9375 222.5625 C-14.958125 223.366875 -14.97875 224.17125 -15 225 C-13.23470405 226.21690533 -13.23470405 226.21690533 -11 227 C-8.76529595 226.21690533 -8.76529595 226.21690533 -7 225 C-7 222.69 -7 220.38 -7 218 C-6.38125 219.175625 -6.38125 219.175625 -5.75 220.375 C-3.89792505 223.15311242 -3.13091509 224.01599812 0 225 C3.16695956 225.16724737 3.16695956 225.16724737 6 225 C5.505 221.535 5.505 221.535 5 218 C5.66 218 6.32 218 7 218 C7.061875 218.763125 7.12375 219.52625 7.1875 220.3125 C7.76811239 223.16745857 7.76811239 223.16745857 10.25 224.75 C16.43112997 227.55960453 22.7891859 227.93126568 29.25 225.75 C32.47462163 224.44390325 34.27605237 223.12465509 36 220 C31.89100419 221.12795963 27.92438786 222.33510818 24 224 C24.99 222.515 24.99 222.515 26 221 C23.69 220.34 21.38 219.68 19 219 C19.88042969 219.04640625 20.76085937 219.0928125 21.66796875 219.140625 C22.82941406 219.17671875 23.99085938 219.2128125 25.1875 219.25 C26.91033203 219.31960938 26.91033203 219.31960938 28.66796875 219.390625 C32.68256608 218.91998053 34.21401903 217.88152905 37 215 C38.34578147 212.25038375 38.55657844 210.1039509 39 207 C38.01 205.515 38.01 205.515 37 204 C36.443125 205.85625 36.443125 205.85625 35.875 207.75 C34.27671253 212.12019665 32.03513535 213.66858846 28 216 C28 216.66 28 217.32 28 218 C27.34 218 26.68 218 26 218 C25.505 216.515 25.505 216.515 25 215 C22.18263828 214.21739952 20.54030762 213.80488891 17.75 214.8125 C15.84925076 215.89399368 15.84925076 215.89399368 15 218 C14.814375 217.0409375 14.814375 217.0409375 14.625 216.0625 C14.41875 215.381875 14.2125 214.70125 14 214 C10.87293041 212.4364652 7.42017557 212.60041513 4 213 C0.75150023 214.72226496 0.75150023 214.72226496 0 218 C0 216.02 0 214.04 0 212 C-0.99 212 -1.98 212 -3 212 C-3 211.34 -3 210.68 -3 210 C-2.40832031 210.04640625 -1.81664062 210.0928125 -1.20703125 210.140625 C4.0466328 210.42325785 4.0466328 210.42325785 8.6875 208.1875 C9.450625 207.465625 10.21375 206.74375 11 206 C12.97711651 204.95548562 14.97250996 203.94301862 17 203 C14.66666667 205.33333333 12.33333333 207.66666667 10 210 C14.46289523 211.80640997 17.3341408 212.2905568 22 211 C24.79897943 209.53888984 24.79897943 209.53888984 27 208 C26.34 209.32 25.68 210.64 25 212 C26.78141747 212.86358623 26.78141747 212.86358623 29 213 C31.89463404 210.93240426 32.87380199 209.37859404 34 206 C34.30333666 202.89954152 34.30333666 202.89954152 32.1875 200.625 C30.18659016 198.80122533 30.18659016 198.80122533 28 199 C27.5359375 200.36125 27.5359375 200.36125 27.0625 201.75 C24.23805045 206.20064778 20.83786383 207.27581373 16 209 C16 208.34 16 207.68 16 207 C16.763125 206.731875 17.52625 206.46375 18.3125 206.1875 C20.91752101 205.0364442 22.24363005 204.19546244 24 202 C24.33 201.01 24.66 200.02 25 199 C23.16115216 196.54820288 22.19735411 196.03432245 19.125 195.5 C15.84391733 195.70607772 15.84391733 195.70607772 13.77734375 198.28125 C10.08877032 201.89200543 6.04757583 203.74471426 1.43945312 205.9609375 C-2.73493986 208.05862242 -5.3001132 210.042914 -8 214 C-7.45275433 210.1692803 -5.71844729 208.63075544 -3 206 C-3 205.34 -3 204.68 -3 204 C-2.34 203.9175 -1.68 203.835 -1 203.75 C3.81661882 202.5458453 8.4653162 200.5346838 12 197 C12 195.68 12 194.36 12 193 C10.68 192.67 9.36 192.34 8 192 Z M-44 210 C-37.07 208.515 -37.07 208.515 -30 207 C-30 206.67 -30 206.34 -30 206 C-31.76949095 205.89184775 -33.54087487 205.81433917 -35.3125 205.75 C-36.79169922 205.68039062 -36.79169922 205.68039062 -38.30078125 205.609375 C-41.55200795 205.75570981 -41.55200795 205.75570981 -44 210 Z M45 218 C45.33 219.98 45.66 221.96 46 224 C49.42578949 220.82460444 49.42578949 220.82460444 52 217 C48.37114676 216.84850702 48.37114676 216.84850702 45 218 Z M-35 227 C-34 229 -34 229 -34 229 Z M35 229 C35 230.65 35 232.3 35 234 C35.33 234 35.66 234 36 234 C36 232.35 36 230.7 36 229 C35.67 229 35.34 229 35 229 Z M8 253 C6.75885283 255.05040868 6.17869384 256.83366197 5.6328125 259.16015625 C5 261 5 261 2 263 C-0.1875 263.625 -0.1875 263.625 -2 264 C-2 263.34 -2 262.68 -2 262 C-4.31 262.66 -6.62 263.32 -9 264 C-9 264.66 -9 265.32 -9 266 C-5.82912985 267.58543507 -3.52009516 267.34065437 0 267 C4.56846859 265.09029782 7.43196196 263.25441733 9.5 258.6875 C9.665 257.800625 9.83 256.91375 10 256 C10.66 256 11.32 256 12 256 C12 256.99 12 257.98 12 259 C12.66 259 13.32 259 14 259 C14.33 259.99 14.66 260.98 15 262 C17.70844881 256.26709085 17.70844881 256.26709085 18 250 C14.52094009 250 10.99494945 251.34518191 8 253 Z " fill="#000000" transform="translate(243,135)"/>
<path d="M0 0 C4.13405805 1.38292333 6.70975815 3.27689743 9.875 6.25 C10.73609375 7.04792969 11.5971875 7.84585938 12.484375 8.66796875 C13.31453125 9.43753906 14.1446875 10.20710937 15 11 C17.31465892 13.02327455 19.65499125 15.0118404 22 17 C21.01 17.33 20.02 17.66 19 18 C18.29875 17.35933594 17.5975 16.71867187 16.875 16.05859375 C15.92625 15.19363281 14.9775 14.32867187 14 13.4375 C13.50395264 12.98511963 13.00790527 12.53273926 12.49682617 12.06665039 C8.83911514 8.73990597 5.12758172 5.48341129 1.36328125 2.27734375 C0.91339844 1.85582031 0.46351563 1.43429688 0 1 C0 0.67 0 0.34 0 0 Z " fill="#000000" transform="translate(178,139)"/>
<path d="M0 0 C-1.36508501 3.11728368 -2.86919698 5.08663738 -5.4375 7.3125 C-6.03433594 7.84488281 -6.63117188 8.37726563 -7.24609375 8.92578125 C-7.82488281 9.28027344 -8.40367187 9.63476562 -9 10 C-9.99 9.67 -10.98 9.34 -12 9 C-10.38050958 7.49405319 -8.75424026 5.99539332 -7.125 4.5 C-6.22007812 3.6646875 -5.31515625 2.829375 -4.3828125 1.96875 C-2 0 -2 0 0 0 Z " fill="#000000" transform="translate(324,140)"/>
<path d="M0 0 C8.20223207 3.86375241 16.06613353 8.10032091 23.8125 12.8125 C24.6070459 13.29243408 25.4015918 13.77236816 26.22021484 14.2668457 C26.95836426 14.72148193 27.69651367 15.17611816 28.45703125 15.64453125 C29.11678955 16.05034424 29.77654785 16.45615723 30.45629883 16.87426758 C32 18 32 18 33 20 C30.0489384 19.37305861 27.69095857 18.42631177 25.05859375 16.9609375 C24.31464355 16.5484375 23.57069336 16.1359375 22.80419922 15.7109375 C22.02318848 15.27007812 21.24217773 14.82921875 20.4375 14.375 C19.23891357 13.70210937 19.23891357 13.70210937 18.01611328 13.015625 C3.95618931 5.06735383 3.95618931 5.06735383 0 2 C0 1.34 0 0.68 0 0 Z " fill="#000000" transform="translate(150,141)"/>
<path d="M0 0 C0.99 0.33 1.98 0.66 3 1 C-0.47797056 3.06452187 -3.95759533 5.12624017 -7.4375 7.1875 C-8.41138672 7.76564453 -9.38527344 8.34378906 -10.38867188 8.93945312 C-14.93987123 11.63364137 -19.49883045 14.31354499 -24.09765625 16.92578125 C-24.80543213 17.32837158 -25.51320801 17.73096191 -26.24243164 18.14575195 C-28 19 -28 19 -30 19 C-30 18.34 -30 17.68 -30 17 C-29.26885986 16.59160889 -28.53771973 16.18321777 -27.78442383 15.76245117 C-25.05376892 14.23670722 -22.32350786 12.71026146 -19.59350586 11.18334961 C-17.83802811 10.20177404 -16.08210323 9.22099827 -14.32617188 8.24023438 C-13.21435547 7.61826172 -12.10253906 6.99628906 -10.95703125 6.35546875 C-9.93585205 5.78465576 -8.91467285 5.21384277 -7.86254883 4.62573242 C-5.97697952 3.55485771 -4.12491417 2.42236537 -2.31518555 1.2277832 C-1.55117432 0.82261475 -0.78716309 0.41744629 0 0 Z " fill="#000000" transform="translate(350,143)"/>
<path d="M0 0 C0 0.66 0 1.32 0 2 C-2.64 2.66 -5.28 3.32 -8 4 C-8 3.34 -8 2.68 -8 2 C-5.09399739 0.74335022 -3.20395416 0 0 0 Z " fill="#000000" transform="translate(356,163)"/>
<path d="M0 0 C7.32673452 2.0966568 14.4772579 4.54884754 21.625 7.1875 C22.62917969 7.55552734 23.63335937 7.92355469 24.66796875 8.30273438 C27.11294675 9.19922631 29.55692081 10.09834928 32 11 C32 11.66 32 12.32 32 13 C28.00409121 12.32046791 24.39845512 11.13496661 20.60546875 9.71484375 C19.40341797 9.26689453 18.20136719 8.81894531 16.96289062 8.35742188 C15.70439626 7.88419654 14.4459331 7.41088821 13.1875 6.9375 C11.90963459 6.45994011 10.63164102 5.982723 9.35351562 5.50585938 C6.23440005 4.34060488 3.11663485 3.17186993 0 2 C0 1.34 0 0.68 0 0 Z " fill="#000000" transform="translate(162,167)"/>
<path d="M0 0 C-10.71965483 4.81607681 -21.83398216 8.37998831 -33 12 C-33 11.34 -33 10.68 -33 10 C-4.18902439 -1.39634146 -4.18902439 -1.39634146 0 0 Z " fill="#000000" transform="translate(340,170)"/>
<path d="M0 0 C8.11790934 0.63796115 16.0589444 1.96236858 24.0625 3.4375 C25.29677734 3.65470703 26.53105469 3.87191406 27.80273438 4.09570312 C28.97255859 4.31033203 30.14238281 4.52496094 31.34765625 4.74609375 C32.94105835 5.03504517 32.94105835 5.03504517 34.56665039 5.32983398 C35.36965576 5.55098877 36.17266113 5.77214355 37 6 C37.495 6.99 37.495 6.99 38 8 C29.88209066 7.36203885 21.9410556 6.03763142 13.9375 4.5625 C12.70322266 4.34529297 11.46894531 4.12808594 10.19726562 3.90429688 C8.4425293 3.58235352 8.4425293 3.58235352 6.65234375 3.25390625 C5.59007568 3.06127197 4.52780762 2.8686377 3.43334961 2.67016602 C2.63034424 2.44901123 1.82733887 2.22785645 1 2 C0.67 1.34 0.34 0.68 0 0 Z " fill="#000000" transform="translate(135,179)"/>
<path d="M0 0 C-2.61454257 2.61454257 -4.44823006 2.64366421 -8.07421875 3.2890625 C-9.29947266 3.50820312 -10.52472656 3.72734375 -11.78710938 3.953125 C-13.07423828 4.17484375 -14.36136719 4.3965625 -15.6875 4.625 C-16.95529297 4.85445312 -18.22308594 5.08390625 -19.52929688 5.3203125 C-25.44932344 6.36119629 -30.9723882 7.12522673 -37 7 C-34.33543266 4.33543266 -32.37306403 4.34246119 -28.671875 3.7109375 C-27.39699219 3.49179688 -26.12210937 3.27265625 -24.80859375 3.046875 C-23.80868408 2.88155273 -23.80868408 2.88155273 -22.78857422 2.71289062 C-20.77000327 2.37831551 -18.75416304 2.03006108 -16.73828125 1.6796875 C-11.0904848 0.72416907 -5.74229982 -0.1428487 0 0 Z " fill="#000000" transform="translate(366,181)"/>
<path d="M0 0 C1.6254308 0.14095064 3.25034051 0.28792087 4.875 0.4375 C5.77992188 0.51871094 6.68484375 0.59992188 7.6171875 0.68359375 C10 1 10 1 12 2 C11.67 2.66 11.34 3.32 11 4 C7.37 3.34 3.74 2.68 0 2 C0 1.34 0 0.68 0 0 Z " fill="#000000" transform="translate(180,187)"/>
<path d="M0 0 C2.97 0 5.94 0 9 0 C9 0.66 9 1.32 9 2 C6.03 2 3.06 2 0 2 C0 1.34 0 0.68 0 0 Z " fill="#000000" transform="translate(139,199)"/>
<path d="M0 0 C10.56 0 21.12 0 32 0 C32.495 0.99 32.495 0.99 33 2 C22.11 2 11.22 2 0 2 C0 1.34 0 0.68 0 0 Z " fill="#000000" transform="translate(156,199)"/>
<path d="M0 0 C6.27 0 12.54 0 19 0 C19 0.33 19 0.66 19 1 C12.73 1 6.46 1 0 1 C0 0.67 0 0.34 0 0 Z " fill="#000000" transform="translate(327,201)"/>
<path d="M0 0 C-2.62810304 2.62810304 -4.49829742 2.64736691 -8.14453125 3.2890625 C-9.37880859 3.50820312 -10.61308594 3.72734375 -11.88476562 3.953125 C-13.18091797 4.17484375 -14.47707031 4.3965625 -15.8125 4.625 C-17.73932617 4.96917969 -17.73932617 4.96917969 -19.70507812 5.3203125 C-30.1555343 7.14819031 -30.1555343 7.14819031 -35 7 C-34.67 6.34 -34.34 5.68 -34 5 C-31.41137695 4.31396484 -31.41137695 4.31396484 -27.98828125 3.7109375 C-26.75529297 3.49179688 -25.52230469 3.27265625 -24.25195312 3.046875 C-22.95193359 2.82515625 -21.65191406 2.6034375 -20.3125 2.375 C-19.03181641 2.14554688 -17.75113281 1.91609375 -16.43164062 1.6796875 C-10.8800399 0.70967302 -5.65044337 -0.13993914 0 0 Z " fill="#000000" transform="translate(170,214)"/>
<path d="M0 0 C8.59413721 0.51211107 16.83155324 1.78836453 25.25 3.5625 C26.38824219 3.79646484 27.52648437 4.03042969 28.69921875 4.27148438 C31.46750142 4.84142492 34.23430339 5.41766365 37 6 C37 6.66 37 7.32 37 8 C32.85482639 7.32987955 28.71060265 6.65422493 24.56713867 5.97363281 C23.16015511 5.74330236 21.75293138 5.51443366 20.34545898 5.28710938 C18.31167327 4.95835848 16.2788358 4.62419897 14.24609375 4.2890625 C13.02591553 4.09006348 11.8057373 3.89106445 10.54858398 3.68603516 C6.93559118 2.98754807 3.51985821 2.06207724 0 1 C0 0.67 0 0.34 0 0 Z " fill="#000000" transform="translate(329,215)"/>
<path d="M0 0 C-5.625 3 -5.625 3 -9 3 C-9 2.34 -9 1.68 -9 1 C-3.375 -1.125 -3.375 -1.125 0 0 Z " fill="#000000" transform="translate(154,236)"/>
<path d="M0 0 C2.97 0.99 5.94 1.98 9 3 C4.70600835 4.07349791 3.80504787 3.79682816 0 2 C0 1.34 0 0.68 0 0 Z " fill="#000000" transform="translate(347,236)"/>
<path d="M0 0 C4.2742558 1.5830577 6.26531794 4.50568404 9 8 C6 8 6 8 4.39453125 6.50390625 C3.61142578 5.54291016 3.61142578 5.54291016 2.8125 4.5625 C2.28269531 3.92441406 1.75289063 3.28632813 1.20703125 2.62890625 C0 1 0 1 0 0 Z " fill="#000000" transform="translate(288,247)"/>
<path d="M0 0 C3.65658033 1.61166811 6.53033096 3.86423078 9.625 6.375 C10.58664062 7.14585937 11.54828125 7.91671875 12.5390625 8.7109375 C14.77232343 10.78822465 15.91219597 12.19730492 17 15 C10.9454401 11.23635466 5.24048054 6.83019381 0 2 C0 1.34 0 0.68 0 0 Z " fill="#000000" transform="translate(306,248)"/>
<path d="M0 0 C0 0.66 0 1.32 0 2 C-2.12232979 3.17176518 -4.24757791 4.33754785 -6.375 5.5 C-6.97828125 5.83386719 -7.5815625 6.16773438 -8.203125 6.51171875 C-12.7734375 9 -12.7734375 9 -15 9 C-15 8.34 -15 7.68 -15 7 C-12.48046875 5.2734375 -12.48046875 5.2734375 -9.1875 3.375 C-8.10855469 2.74335938 -7.02960938 2.11171875 -5.91796875 1.4609375 C-3 0 -3 0 0 0 Z " fill="#000000" transform="translate(164,250)"/>
<path d="M0 0 C0.66 0 1.32 0 2 0 C4.12394451 3.76862047 6.24166945 7.54064685 8.35375977 11.31591797 C9.07277211 12.59909341 9.79346005 13.88133146 10.51586914 15.16259766 C11.55539358 17.00698445 12.58879775 18.85468502 13.62109375 20.703125 C14.2442749 21.81333008 14.86745605 22.92353516 15.50952148 24.06738281 C16.72433849 26.45761735 17.5298634 28.38503905 18 31 C14.93360441 28.15527658 12.85259341 25.3564746 10.80078125 21.71875 C10.23166016 20.71199219 9.66253906 19.70523437 9.07617188 18.66796875 C8.49416016 17.62253906 7.91214844 16.57710938 7.3125 15.5 C6.42208008 13.93185547 6.42208008 13.93185547 5.51367188 12.33203125 C0.74801797 3.84405931 0.74801797 3.84405931 0 0 Z " fill="#000000" transform="translate(280,253)"/>
<path d="M0 0 C4.99911924 0.47610659 7.97832683 2.03162219 12 5 C11.67 5.66 11.34 6.32 11 7 C7.37 5.02 3.74 3.04 0 1 C0 0.67 0 0.34 0 0 Z " fill="#000000" transform="translate(340,254)"/>
<path d="M0 0 C0.66 0.33 1.32 0.66 2 1 C0.44118037 3.83537265 -1.12274279 6.66790043 -2.6875 9.5 C-3.34008789 10.68722656 -3.34008789 10.68722656 -4.00585938 11.8984375 C-6.18169795 15.83106426 -8.39368572 19.74015641 -10.70703125 23.59375 C-11.09995361 24.25052734 -11.49287598 24.90730469 -11.89770508 25.58398438 C-12.2614624 26.05126953 -12.62521973 26.51855469 -13 27 C-13.66 27 -14.32 27 -15 27 C-13.66252058 23.46238077 -12.09562161 20.23255793 -10.21484375 16.953125 C-9.68439453 16.02628906 -9.15394531 15.09945313 -8.60742188 14.14453125 C-8.05634766 13.18933594 -7.50527344 12.23414063 -6.9375 11.25 C-6.38255859 10.27933594 -5.82761719 9.30867188 -5.25585938 8.30859375 C-1.14043257 1.14043257 -1.14043257 1.14043257 0 0 Z " fill="#000000" transform="translate(217,256)"/>
<path d="M0 0 C0.66 0 1.32 0 2 0 C2.50615298 1.26839526 3.00469099 2.53983102 3.5 3.8125 C3.91765625 4.87404297 3.91765625 4.87404297 4.34375 5.95703125 C5 8 5 8 5 11 C4.34 11 3.68 11 3 11 C2.49384702 9.73160474 1.99530901 8.46016898 1.5 7.1875 C1.2215625 6.47980469 0.943125 5.77210938 0.65625 5.04296875 C0 3 0 3 0 0 Z " fill="#000000" transform="translate(270,257)"/>
<path d="M0 0 C0.66 0.33 1.32 0.66 2 1 C-3.55615918 7.87504545 -9.21899825 14.63943863 -15.01269531 21.31494141 C-17.16861767 23.8093677 -19.16848956 26.25273434 -21 29 C-21.66 29 -22.32 29 -23 29 C-21.47260916 25.57326304 -19.45668829 22.94158718 -17.0625 20.0625 C-16.26972656 19.10730469 -15.47695312 18.15210938 -14.66015625 17.16796875 C-13.77421226 16.11132909 -12.88745172 15.05537368 -12 14 C-11.51128418 13.41814941 -11.02256836 12.83629883 -10.51904297 12.23681641 C-1.43813559 1.43813559 -1.43813559 1.43813559 0 0 Z " fill="#000000" transform="translate(198,261)"/>
<path d="M0 0 C3.76381862 1.50721148 5.58463482 3.64916931 8.0625 6.8125 C8.83722656 7.78832031 9.61195313 8.76414062 10.41015625 9.76953125 C10.82410645 10.29111816 11.23805664 10.81270508 11.66455078 11.35009766 C13.07894889 13.09753868 14.5302296 14.80725832 15.99609375 16.51171875 C16.4955249 17.09268311 16.99495605 17.67364746 17.50952148 18.2722168 C18.48911706 19.40777746 19.47162181 20.5408362 20.45727539 21.67114258 C22.55612474 24.1163342 23.96961678 25.90885035 25 29 C22.02893702 27.68307913 20.15161584 26.34272614 18.046875 23.875 C17.51344482 23.25520264 16.98001465 22.63540527 16.43041992 21.99682617 C15.87588135 21.33787354 15.32134277 20.6789209 14.75 20 C14.17805908 19.32880127 13.60611816 18.65760254 13.0168457 17.96606445 C11.33534627 15.98491533 9.66539782 13.99469355 8 12 C7.31526611 11.18281494 7.31526611 11.18281494 6.61669922 10.34912109 C0 2.41478832 0 2.41478832 0 0 Z " fill="#000000" transform="translate(301,262)"/>
<path d="M0 0 C0.66 0.66 1.32 1.32 2 2 C-3.75 7 -3.75 7 -6 7 C-4.60667426 3.63279613 -3.0210714 2.0140476 0 0 Z " fill="#000000" transform="translate(170,266)"/>
<path d="M0 0 C3.57104439 1.87949705 5.54744301 3.17053157 7 7 C3.42895561 5.12050295 1.45255699 3.82946843 0 0 Z " fill="#000000" transform="translate(329,267)"/>
<path d="M0 0 C3.28119676 1.64059838 3.69195859 5.23037577 4.8203125 8.53515625 C5.08383514 9.28840683 5.34735779 10.04165741 5.61886597 10.81773376 C6.46112904 13.23032231 7.29315133 15.64630323 8.125 18.0625 C8.69334076 19.69619666 9.26234274 21.32966345 9.83203125 22.96289062 C11.22904808 26.97263081 12.61688901 30.98544303 14 35 C13.01 35.495 13.01 35.495 12 36 C8.6172849 27.40185961 5.24663183 18.7990143 2.0625 10.125 C1.66160156 9.03445313 1.26070313 7.94390625 0.84765625 6.8203125 C0 4 0 4 0 0 Z " fill="#000000" transform="translate(277,275)"/>
<path d="M0 0 C0.66 0 1.32 0 2 0 C0.8141763 3.37503669 -0.27573689 5.64722731 -3 8 C-2.45276317 4.62537285 -1.9451 2.91765 0 0 Z " fill="#000000" transform="translate(197,290)"/>
<path d="M0 0 C2.25245881 2.68841859 3.88213958 4.64641875 5 8 C2.00675737 6.9024777 1.15389099 6.32317108 -0.25 3.375 C-0.4975 2.59125 -0.745 1.8075 -1 1 C-0.67 0.67 -0.34 0.34 0 0 Z " fill="#000000" transform="translate(302,290)"/>
</svg>
